<svg width="200" height="168" viewBox="0 0 200 168" fill="none" xmlns="http://www.w3.org/2000/svg">
<g clip-path="url(#clip0_5_293)">
<path opacity="0.6" d="M175.036 49.5649C176.914 49.5504 179.018 49.6275 180.321 50.9808C180.819 51.4961 181.195 52.1944 181.871 52.4448C182.489 52.6711 183.164 52.4448 183.797 52.2907C186.369 51.655 189.203 52.1655 191.389 53.6584C193.576 55.1513 195.077 57.6026 195.41 60.2272C191.268 60.9448 186.809 59.9912 182.942 61.6383C180.505 62.6785 178.574 64.6578 176.18 65.804C171.547 68.0241 165.962 66.7672 161.352 64.4941C156.743 62.221 152.626 59.004 147.862 57.0776C143.841 55.4499 139.415 54.7708 135.665 52.5941C138.078 50.9808 140.776 49.7961 143.6 49.1122C144.676 48.8521 145.598 45.4281 146.119 46.4009C146.356 46.8391 146.327 47.3689 146.496 47.8408C146.921 49.0351 148.417 49.4541 149.691 49.4156C151.738 49.3578 159.147 49.2519 161.116 49.0785C165.745 48.674 170.393 49.6034 175.036 49.5697V49.5649Z" fill="#AFD9E0"/>
<path d="M187.32 60.2417C188.845 59.9286 190.38 59.6638 191.896 59.4133C191.394 59.4085 188.942 59.423 187.32 60.2417Z" fill="#D3E1E5"/>
<path d="M191.939 60.3428C192.089 60.0009 192.239 59.6638 192.393 59.3315C192.229 59.3604 192.06 59.3844 191.896 59.4133C191.954 59.4133 191.993 59.4133 191.993 59.4133C191.993 59.4133 191.973 59.7697 191.939 60.338V60.3428Z" fill="#D3E1E5"/>
<path opacity="0.8" d="M188.146 85.9873C188.295 88.4434 188.064 91.1162 186.456 92.9799C184.796 94.9063 182.016 95.5468 180.264 97.3913C177.512 95.1133 175.282 92.219 173.786 88.9779C173.579 88.5349 173.386 88.0677 173.376 87.5765C173.366 86.8975 173.709 86.2714 174.047 85.6791C178.468 77.8388 180.814 71.583 184.361 63.3142C184.598 62.7652 192.248 60.3524 192.842 60.0538C187.914 61.0604 177.585 62.7604 173.815 65.987C176.687 62.9048 180.524 60.7281 184.651 59.842C176.455 59.1244 168.38 57.0632 160.846 53.7643C158.688 52.8204 156.516 51.7561 154.165 51.5683C148.793 51.1397 143.267 55.315 138.343 53.1286C140.612 52.4159 142.881 51.7031 145.144 50.9904C145.593 50.8507 146.066 50.6918 146.351 50.3162C146.713 49.8442 146.655 49.1893 146.573 48.6017C145.728 42.4759 144.203 36.4417 142.031 30.653C141.669 29.6898 141.283 28.7026 141.278 27.672C141.264 24.2864 145 22.3745 147.461 20.0436C151.4 16.3162 152.413 9.87252 149.812 5.11926C149.126 3.87196 148.026 2.9136 146.549 3.09179C146.361 2.50425 145.868 1.90708 145.719 1.47847C145.767 1.78669 146.37 4.66657 146.057 4.7966C147.394 4.24278 149.107 5.4323 149.054 6.87224C150.039 10.1711 150.005 13.7734 148.953 17.053C141.23 22.4371 135.028 30.6241 132.643 39.7164C132.392 40.67 132.175 41.638 131.794 42.5482C131.359 43.574 130.727 44.4986 130.095 45.4136C128.671 47.4796 127.715 49.5697 126.759 51.891C125.866 54.0629 125.408 56.4419 125.678 58.7728C125.953 61.1471 126.967 63.3864 128.28 65.3898C130.283 68.4431 132.967 70.9762 135.626 73.4853C136.225 74.0488 136.818 74.6074 137.417 75.1708C139.463 77.102 141.519 79.0332 143.402 81.1233C148.18 86.4111 151.858 92.6813 154.141 99.4284C155.165 98.6771 156.724 99.2743 157.428 100.334C158.133 101.393 158.215 102.727 158.273 103.999C160.151 103.536 161.806 105.222 163.003 106.739C164.485 108.617 165.851 123.277 167.333 125.155C169.983 124.606 175.369 121.408 176.214 117.7C182.286 111.757 183.942 102.544 187.282 94.7377C188.165 92.6717 189.01 90.572 189.415 88.3615C190.038 84.9615 191.877 77.2272 192.494 73.8272C192.929 71.4337 193.103 62.481 192.847 60.0635C192.837 59.972 190.54 70.5043 190.53 70.4128C189.985 73.2012 188.783 75.8354 188.126 78.6527C187.571 81.0462 188.01 83.5456 188.155 85.9969L188.146 85.9873Z" fill="#B1D7E0"/>
<path opacity="0.9" d="M197.2 64.1184C196.462 61.1567 195.651 58.0505 193.551 55.8303C191.312 53.4657 194.879 69.31 193.551 72.2862C188.242 84.2102 191.341 83.0015 186.456 92.9751C182.682 100.681 174.027 113.905 173.781 116.149C173.511 118.61 167.444 112.364 164.422 108.458C163.78 107.63 153.441 93.5578 153.803 94.285C150.671 88.0196 147.422 81.5952 142.195 76.9238C136.239 71.6023 127.382 67.8845 126.098 60.0153C125.379 55.6184 127.411 51.289 129.39 47.2918C132.117 41.7728 134.849 36.2538 137.576 30.7349C138.681 28.5051 139.811 26.232 141.529 24.4309C143.107 22.779 145.13 21.5703 146.568 19.798C150.965 14.385 148.388 6.40029 145.636 0C139.14 1.76742 132.421 2.7306 125.688 2.86544C123.337 6.1932 119.968 8.79377 116.155 10.2337C116.213 12.0011 116.276 13.7686 116.333 15.536C109.663 16.5714 103.533 19.7017 97.5334 22.7839C84.8391 29.3094 94.396 34.5876 81.7017 41.1082C78.212 42.8997 52.4663 50.764 49.2275 52.9793C46.4281 54.8961 43.8216 57.1258 40.7904 58.6573C38.3578 59.8901 35.7079 55.8207 33.2221 56.9332C27.2129 59.6204 22.2076 64.4844 19.3598 70.408C17.4532 74.3762 16.4734 78.802 14.0504 82.4813C10.1601 88.3904 2.91999 91.7904 -0.00500488 98.234C2.97308 106.069 12.1342 109.392 17.9166 115.475C21.194 118.918 23.3949 123.286 26.7978 126.604C30.2923 130.004 34.8294 132.09 38.8404 134.864C45.8151 139.694 51.0858 146.537 57.1579 152.456C58.4755 153.737 59.885 155.013 61.6129 155.639C62.8534 156.087 78.1203 167.491 79.438 167.573C91.8089 168.329 97.6154 163.595 103.176 161.067C105.893 159.829 114.224 157.147 116.406 156.366C123.656 153.766 126.252 151.555 133.155 148.146C138.401 145.555 143.643 142.964 148.89 140.368C155.864 136.92 162.897 133.438 169.027 128.651C176.846 122.545 182.913 114.536 188.889 106.628C193.223 100.888 197.669 94.9255 199.285 87.9233C201.096 80.083 199.146 71.925 197.205 64.1184H197.2Z" fill="#E1EDEF"/>
<path d="M139.014 81.8071C140.935 84.2536 142.852 86.6952 144.773 89.1417C146.221 90.9862 147.674 92.8355 148.986 94.7763C150.106 96.4329 151.12 98.1522 152.206 99.8281C153.152 101.287 154.146 102.708 155.145 104.129C159.528 110.38 163.911 116.631 168.288 122.882C168.284 118.889 165.436 115.562 162.945 112.441C157.655 105.814 153.345 98.4797 148.653 91.4196C147.838 90.1915 147.012 88.9731 146.187 87.7499C145.506 86.7434 144.826 85.7369 144.14 84.7304C143.04 83.1026 141.939 81.4796 140.728 79.9289C138.035 76.4856 134.844 73.4709 131.663 70.4658C130.442 69.3148 128.593 66.7768 126.996 66.4012C130.268 71.872 135.158 76.7023 139.014 81.8023V81.8071Z" fill="#FDFFFF"/>
<path d="M128.024 17.4672C128.777 17.3997 129.511 17.2023 130.239 17C132.614 16.3547 134.989 15.7094 137.368 15.064C135.92 15.4445 134.304 15.1604 133.078 14.3031C136.466 15.0207 140.158 14.1538 142.871 12.006C144.02 11.0958 145.048 9.44873 144.184 8.26403C143.595 7.99916 143.001 7.73428 142.412 7.46941C144.121 6.77111 145.308 4.96516 145.27 3.12068C141.095 1.85411 136.591 4.82069 132.334 3.86714C136.562 2.76913 140.979 2.39349 145.328 2.76913C146.713 4.74363 147.509 7.06006 148.287 9.33797C148.402 9.67508 148.513 10.0122 148.629 10.3445C149.377 12.5453 150.14 14.8521 149.812 17.1541C147.809 18.8011 145.801 20.4482 143.798 22.0904C142.157 23.4388 140.501 24.7969 139.154 26.4343C136.92 29.1456 135.621 32.483 134.048 35.623C132.474 38.7629 130.457 41.8836 127.358 43.5499C131.224 39.832 133.879 34.8813 134.834 29.608C133.594 31.2791 132.31 32.9935 130.548 34.1012C129.544 34.732 128.42 35.1462 127.358 35.6663C124.496 37.0629 122.039 39.2686 120.34 41.9558C121.764 39.5383 123.294 37.0629 125.62 35.4929C128.154 33.7833 131.673 33.0657 132.981 30.3063C129.988 32.0929 126.46 32.9694 122.98 32.7816C126.093 31.9051 129.12 30.6963 131.977 29.1793C132.465 28.9193 132.952 28.6544 133.391 28.3173C135.177 26.9496 139.314 25.2351 138.648 23.0873C139.994 22.1867 145.048 16.0994 146.018 14.7992C144.536 14.8184 135.858 19.2587 134.472 19.7884C137.05 17.7946 143.441 14.2598 146.018 12.266C142.668 14.2598 135.061 16.9422 131.287 17.9198C129.887 18.281 128.449 18.6278 127.006 18.4929C125.905 18.387 124.858 18.0065 123.82 17.6261C121.773 16.8748 119.722 16.1235 117.675 15.3722C119.056 15.8779 120.967 15.8827 122.468 16.3547C124.259 16.9181 126.117 17.6309 128.029 17.4623L128.024 17.4672Z" fill="#FDFFFF"/>
<path d="M152.409 52.4063C153.104 52.2473 153.813 52.0884 154.528 52.1029C155.372 52.1221 156.193 52.3822 157.004 52.6374C167.333 55.8785 177.927 58.3009 188.643 59.8708C184.313 59.683 179.931 61.306 176.774 64.2677C181.77 61.802 187.272 60.3572 192.842 60.0587C193.233 62.5388 192.861 65.1346 191.795 67.4125C191.592 67.8459 191.36 68.2842 191.336 68.7609C191.288 69.7578 192.152 70.5958 192.234 71.5927C192.33 72.7774 191.341 73.7309 190.68 74.723C188.083 78.6238 190.443 84.1284 188.575 88.4241C189.024 85.7995 189.473 83.1796 189.922 80.555C190.332 78.1519 190.815 75.6043 192.485 73.8224C192.919 73.3601 193.445 72.917 193.552 72.2958C193.72 71.2893 192.721 70.5043 192.35 69.5555C191.447 67.2439 194.401 65.0527 194.285 62.5774C194.237 61.4793 193.585 60.5114 193.17 59.4952C192.755 58.4791 192.634 57.1547 193.455 56.4179C190.25 56.5864 187.04 56.6346 183.835 56.5575C186.495 57.1691 189.217 57.5352 191.944 57.6555L191.935 59.1292C187.098 58.3683 182.325 57.1788 177.696 55.5895C175.205 54.7323 172.705 53.7499 170.079 53.6198C174.621 55.6521 179.371 57.2173 184.231 58.2816C174.655 57.8578 165.948 52.4159 156.429 51.2842C161.724 50.3113 167.26 50.6966 172.367 52.3822C172 51.7946 171.426 51.3468 170.769 51.1252L172.546 50.1139C171.436 50.7448 167.217 49.7768 165.803 49.7912C163.341 49.8153 160.879 49.9935 158.442 50.3258C155.223 50.764 148.253 51.2119 146.018 53.798C148.108 53.615 150.328 52.883 152.409 52.4111V52.4063Z" fill="#FDFFFF"/>
<path d="M49.2036 102.718C48.4989 103.729 47.5722 104.943 48.108 106.055C48.5955 107.066 49.9373 107.216 51.0571 107.278C52.3844 107.355 53.7649 107.519 54.8798 108.246C53.6346 108.559 52.3506 108.733 51.0667 108.757C52.8526 109.055 54.7881 109.335 56.3954 108.501C54.653 106.45 51.7907 105.833 49.1409 105.337C49.3774 103.82 50.1062 102.433 50.671 101.008C51.1826 99.7125 51.6073 98.2437 51.2502 96.8567C50.9316 98.9516 50.4537 100.936 49.2036 102.722V102.718Z" fill="#FDFFFF"/>
<path d="M37.4505 83.483C38.5076 83.7094 39.5984 83.4638 40.6796 83.459C41.7608 83.4541 42.9771 83.8057 43.4502 84.7785C43.5998 84.1235 43.1219 83.459 42.5138 83.17C41.9056 82.8811 41.2106 82.8762 40.5396 82.8907C37.6147 82.9485 35.515 82.5969 33.1741 80.7958C34.5497 81.7204 35.7708 83.1267 37.4505 83.483V83.483Z" fill="#FDFFFF"/>
<path d="M37.7305 105.352C38.1649 105.434 38.6138 105.54 38.9855 105.78C39.2847 105.978 39.5164 106.252 39.7433 106.527C40.5735 107.519 41.3988 108.506 42.229 109.498C43.2475 109.32 44.4204 109.185 45.1926 109.864C45.545 110.173 45.7622 110.62 46.1387 110.9C46.9013 111.468 47.968 111.179 48.9092 111.039C50.1256 110.861 51.3902 111.001 52.5389 111.434C52.6982 111.82 52.8623 112.219 52.8382 112.633C52.814 113.048 52.5437 113.481 52.1335 113.544C52.592 113.476 53.065 113.5 53.5139 113.626C53.8952 112.292 53.1567 110.731 51.8825 110.173C50.0387 109.364 47.6639 110.553 45.9649 109.465C45.6222 109.243 45.3278 108.94 44.961 108.766C43.9425 108.285 42.6972 108.92 41.6257 108.583C40.9306 107.288 40.2356 105.992 39.5454 104.697C37.7836 104.591 35.7419 104.456 34.0333 104.947C35.2737 105.02 36.5094 105.116 37.7305 105.352V105.352Z" fill="#FDFFFF"/>
<path d="M62.5736 129.195C64.3595 128.656 66.1454 128.121 67.9313 127.582C66.7005 126.58 65.3248 125.757 63.8623 125.145C64.1809 125.713 64.6588 126.19 65.2283 126.503C65.3972 126.595 65.5855 126.691 65.6482 126.869C65.7737 127.216 65.3538 127.495 65.0063 127.625C64.2388 127.919 63.4665 128.213 62.6991 128.507" fill="#FDFFFF"/>
<path d="M95.2168 155.509C97.7894 155.957 100.434 155.427 103.036 155.601C105.445 155.76 107.829 156.52 110.228 156.241C112.892 155.933 115.224 154.387 117.439 152.884C116.339 153.824 115.243 154.758 114.142 155.697C113.703 156.073 113.254 156.453 112.723 156.679C112.057 156.964 111.309 156.988 110.58 157.007C105.836 157.132 101.091 157.262 96.3462 157.387C95.5788 157.407 94.8065 157.426 94.0535 157.277C93.5081 157.166 92.982 156.973 92.4559 156.776C90.3466 155.986 88.2325 155.196 86.1232 154.411C86.8714 154.69 89.0289 154.368 90.0232 154.512C91.7753 154.767 93.4598 155.206 95.2071 155.509H95.2168Z" fill="#FDFFFF"/>
<path d="M134.598 49.3097C135.674 48.9099 136.736 48.4669 137.856 48.202C139.386 47.8408 140.979 47.8312 142.552 47.8167C144.266 47.8023 145.979 47.7927 147.693 47.7782C145.888 48.515 143.967 48.9725 142.021 49.1267C140.704 49.2326 139.362 49.2037 138.083 49.5216C136.572 49.8972 135.225 50.7352 133.908 51.5587C136.809 51.3468 139.709 51.1397 142.615 50.9278C141.046 52.0162 139.005 52.0547 137.093 52.0547C136.123 52.0547 130.104 52.6567 129.694 51.9102C128.888 50.4462 133.715 49.6371 134.608 49.3048L134.598 49.3097Z" fill="#FDFFFF"/>
<path opacity="0.8" d="M19.9344 103.729C20.8514 104.557 21.7685 105.424 22.367 106.503C23.0379 107.712 23.2696 109.103 23.4723 110.471C23.9164 113.471 24.2881 116.53 25.4513 119.332C28.2749 126.137 35.153 130.221 41.587 133.828C39.8928 130.9 38.1842 131.801 35.8963 129.306C33.8739 127.1 31.4123 125.266 29.7664 122.761C27.5075 119.328 25.5961 111.194 24.0467 107.384C21.2424 100.478 14.7167 94.2754 8.59156 90.0182C7.60209 91.4533 8.43711 94.1646 7.44763 95.5998C10.7201 99.674 13.7513 103.946 16.5122 108.381C15.1076 106.122 9.85616 96.9434 9.67758 94.651C12.3516 94.7474 17.8251 101.817 19.9344 103.734V103.729Z" fill="#AFD9E0"/>
<g opacity="0.8">
<path d="M94.9802 81.8986C90.1728 80.6609 89.0868 83.2519 85.4523 85.6165C83.8739 86.6471 81.7743 86.7289 80.0367 87.0853C76.2429 87.6921 76.3829 91.4629 76.2188 94.6944C75.8133 103.146 74.8576 112.667 80.2201 119.78C82.4018 122.52 85.9639 123.551 89.3136 124.341C98.0983 126.388 107.284 126.243 116.063 124.413C116.58 124.302 117.043 124.254 117.256 124.047C117.231 124.047 117.169 124.129 117.169 124.119C117.009 121.933 118.148 120.575 120.132 119.949C121.358 119.52 122.56 119.477 123.603 118.798C125.355 117.695 126.31 115.017 126.977 112.898C127.744 110.442 128.68 107.692 129.26 105.227C130.572 99.5199 132.025 91.2799 126.035 87.8029C122.985 86.2233 119.403 85.7321 116.102 84.7448L105.531 81.889C103.837 81.3785 102.119 80.6947 100.348 80.9306C98.5954 81.2051 96.8433 82.2357 94.9802 81.9034V81.8986ZM95.0333 81.5182C96.8916 81.8023 98.4651 80.7476 100.256 80.3672C102.114 79.9915 103.987 80.555 105.787 80.8632C107.525 81.1618 109.378 81.3544 111.174 81.5808C114.369 82.0142 118.872 82.4428 122.024 82.9389C124.829 83.3145 128.203 84.1476 130.442 86.2859C137.282 92.9703 134.212 103.681 131.47 111.545C130.07 115.186 129.028 119.583 125.364 121.721C124.085 122.511 122.444 122.675 121.073 122.997C120.726 123.084 120.446 123.195 120.335 123.272C120.224 123.354 120.229 123.315 120.176 123.421C120.079 125.94 118.897 126.84 116.469 127.004C107.317 127.962 98.0259 127.283 89.053 125.55C86.3404 125.034 83.4733 124.466 81.0117 123.021C78.4728 121.533 76.5615 119.072 75.2775 116.501C72.6277 111.43 72.1112 105.395 72.5311 99.8618C72.6615 98.0125 72.8835 96.1873 73.149 94.3813C73.5206 91.7615 74.0226 87.8703 76.7835 86.2618C79.4044 84.6726 82.3728 85.9969 84.9889 84.74C88.8889 82.7751 90.0135 80.2227 95.0285 81.5134L95.0333 81.5182Z" fill="#1235E0"/>
<path d="M87.7691 103.498C88.5124 106.224 89.5646 108.867 90.9161 111.338C91.4519 112.378 91.9828 113.573 92.8275 114.415C93.2281 114.699 93.6577 114.483 94.2079 114.444C95.4098 114.319 96.6261 114.454 97.77 114.916C98.1369 115.061 98.4651 115.196 98.7402 115.253C99.6621 115.364 100.434 114.931 101.467 114.719C102.877 114.338 104.233 113.919 105.522 113.476C106.839 113.024 107.993 112.508 109.18 111.728C110.411 110.933 111.941 109.898 113.524 110.086L113.558 110.322C111.531 111.319 110.537 113.548 108.572 114.752C106.622 116.101 104.18 116.66 101.926 116.948C100.932 117.064 99.8359 117.329 98.803 117.059C97.4467 116.66 96.7275 115.388 95.3084 115.22C94.5265 115.051 93.9714 115.258 93.1267 115.33C92.229 115.33 91.587 114.579 90.9161 114.093C87.7643 111.728 86.3886 107.24 87.5277 103.503L87.7691 103.507V103.498Z" fill="#1235E0"/>
<path d="M99.2615 99.7366C98.6437 100.189 97.659 100.772 97.9293 101.586C98.1562 101.986 98.7547 102.048 99.136 101.875C100.159 101.47 101.014 100.194 101.685 99.2309C102.177 98.4363 103.017 97.7669 103.635 97.0975C104.436 96.2499 105.179 95.2 105.753 94.2272C105.889 93.9624 106.029 93.7457 106.038 93.5578C106.038 93.5386 106.024 93.5578 106.019 93.5867C105.995 93.7119 106.058 93.8805 106.14 93.9864C106.178 94.0394 106.255 94.0924 106.202 94.0876C105.536 94.0442 105.145 94.3621 104.552 94.8388C102.882 96.4859 101.052 98.1811 99.2519 99.7318L99.2615 99.7366ZM99.1215 99.5391C100.57 98.2918 100.526 96.1199 101.545 94.5643C102.481 92.9896 104.19 91.3425 106.28 91.6845C107.52 91.8434 108.592 92.8306 108.138 94.1405C107.144 96.4618 104.315 96.9867 102.901 98.9179C102.235 100.026 102.418 101.321 101.651 102.491C101.173 103.305 100.048 104.119 98.9043 103.984C97.7314 103.878 96.631 102.761 96.8723 101.552C97.1184 100.392 98.3686 100.107 99.1215 99.5343V99.5391Z" fill="#1235E0"/>
<path d="M112.931 96.8952C113.833 94.81 115.962 93.4712 118.139 93.0233C120.499 94.7907 119.099 97.4587 117.159 98.8119C115.923 99.6836 114.224 101.085 112.926 101.803C112.4 102.082 111.642 102.621 111.029 102.785C109.991 103.161 108.461 102.602 108.157 101.364C107.872 100.343 108.534 99.5006 109.098 98.9034C110.387 97.5261 112.139 96.5774 113.964 96.4955L114.055 96.717C112.709 97.9932 111.579 99.2743 110.706 100.839C110.614 100.998 110.609 101.08 110.653 100.96C110.667 100.902 110.686 100.782 110.653 100.671C110.609 100.507 110.488 100.343 110.373 100.343C110.281 100.334 110.344 100.367 110.411 100.353C110.493 100.343 110.633 100.314 110.802 100.247L111.975 99.8088C113.467 99.1442 115.354 99.0961 116.725 98.2196C117.859 97.5791 118.216 95.8213 117.14 95.0267L118.134 95.2482C116.937 95.5901 115.61 96.0717 114.442 96.5389C114.007 96.7026 113.582 96.8952 113.1 97.0686L112.931 96.8952V96.8952Z" fill="#1235E0"/>
</g>
<path opacity="0.8" d="M84.6945 42.3893C86.6975 41.0986 88.3338 39.336 89.9459 37.5878C88.5317 42.0281 88.3531 46.8536 89.4343 51.3901C89.8446 53.1046 90.4286 54.8094 90.3803 56.572C88.2035 52.9071 87.6291 48.5536 86.9341 44.3493C86.8423 43.7907 86.6348 43.1116 86.0749 43.0105C85.7853 42.9575 85.4909 43.0972 85.2447 43.2609C84.2504 43.9111 83.5698 44.9946 82.5031 45.5196C81.7598 45.8856 80.9055 45.9385 80.0753 45.9867C78.1591 46.0927 76.2477 46.2082 74.3315 46.3046C77.3771 45.8519 82.1459 44.0315 84.6945 42.3941V42.3893Z" fill="#AFD9E0"/>
<path d="M41.8428 59.6204C42.3496 59.5145 42.8564 59.4085 43.3681 59.3026C46.9447 58.5513 50.6371 57.8 54.233 58.4646C57.7034 59.1099 60.7781 61.017 64.0216 62.4088C67.2652 63.8006 71.0638 64.6578 74.2591 63.1697C69.5386 64.7156 64.3498 63.3575 59.5762 61.9706C57.0615 61.2386 54.6674 60.1165 52.1238 59.4856C49.5801 58.8547 46.7613 60.208 44.4686 61.4745C48.1707 62.2788 51.8679 63.0878 55.57 63.8921C51.8245 64.5422 47.9342 62.8904 44.2852 61.8405C42.2338 61.2482 40.2066 61.8357 38.0732 61.8165C35.5633 61.7972 35.9735 58.1323 33.4974 57.6941C38.9372 59.2207 37.9139 60.4439 41.8428 59.6204V59.6204Z" fill="#FDFFFF"/>
<path d="M121.421 113.852C120.055 113.481 118.607 113.78 117.188 113.813C112.516 113.919 108.215 111.092 103.548 110.842C106.019 110.76 108.326 111.974 110.754 112.426C114.606 113.144 118.747 111.93 122.41 113.317C125.48 114.478 127.609 117.233 129.569 119.862C128.613 118.576 126.769 117.931 125.553 116.968C124.163 115.87 123.236 114.348 121.416 113.852H121.421Z" fill="#FDFFFF"/>
<path d="M95.3181 109.619C96.1386 110.466 96.824 111.449 97.688 112.253C98.3686 112.884 99.1505 113.399 99.9469 113.876C102.684 115.523 105.638 116.814 108.712 117.69C106.695 116.491 104.677 115.292 102.664 114.093C101.448 113.37 100.222 112.643 99.1457 111.723C98.1417 110.866 97.2729 109.86 96.2448 109.026C95.5546 108.468 94.1742 107.298 93.5515 108.188C94.1645 108.612 94.792 109.075 95.3181 109.619Z" fill="#FDFFFF"/>
</g>
<defs>
<clipPath id="clip0_5_293">
<rect width="200" height="167.66" fill="white"/>
</clipPath>
</defs>
</svg>
