<svg width="200" height="155" viewBox="0 0 200 155" fill="none" xmlns="http://www.w3.org/2000/svg">
<g clip-path="url(#clip0_5_358)">
<path d="M8.96835 49.0908L25.2567 54.1802C25.2567 54.1802 22.9289 53.2927 26.7976 40.0385C30.8264 26.2441 33.6382 25.4734 33.6382 25.4734L17.3478 20.387C17.3478 20.387 10.9459 19.3841 6.64976 34.1053C2.35365 48.8265 8.96835 49.0908 8.96835 49.0908Z" fill="#0B99D6"/>
<path d="M26.1485 38.7985C23.8344 46.7241 23.2562 53.5584 25.2567 54.1802L27.1483 54.7731C29.1466 55.3978 32.646 49.4794 34.9571 41.5518C37.2712 33.6262 37.5281 26.6911 35.5277 26.0693L33.6361 25.4764C31.6377 24.8516 28.4596 30.8709 26.1455 38.7964L26.1485 38.7985Z" fill="#A3D8E8"/>
<path opacity="0.8" d="M166.092 126.39C177.509 115.405 178.202 110.641 178.202 110.641C178.202 110.641 182.286 99.4736 168.361 84.6452C154.433 69.8146 144.954 73.1482 118.734 54.3701C111.872 49.4558 105.813 39.6191 101.198 37.4057C95.7039 34.7676 91.2932 33.7249 87.9027 31.8359C83.2576 29.2488 79.367 27.055 72.8837 24.4212C57.6872 18.247 41.9406 30.457 41.9406 30.457L34.1885 28.0328C34.1885 28.0328 31.522 27.8026 28.1329 39.4178C24.7409 51.0309 27.0817 52.3687 27.0817 52.3687C27.0817 52.3687 28.2192 51.4236 29.2622 52.3443C30.3052 53.265 30.8452 51.2816 31.3629 52.2939C31.8806 53.3062 33.0804 53.5373 33.0804 53.5373C33.0804 53.5373 32.1932 56.7689 33.4166 60.1221C35.7916 66.6433 40.9928 76.9305 51.025 81.0055C60.3479 84.7953 65.1542 85.4841 74.3509 88.248C76.3936 88.86 78.6868 91.3532 81.229 90.4518C83.1029 89.7846 83.8658 92.6342 84.8363 91.712C86.5458 90.0806 81.8754 97.0314 88.2523 98.4754C96.0582 100.243 98.9814 104.145 102.879 107.293C108.167 111.566 111.016 114.497 113.77 118.438C114.856 119.991 116.373 118.94 118.058 119.959C119.602 120.895 119.23 122.153 119.908 122.972C121.779 125.248 122.634 123.04 125.386 125.974C139.314 140.804 150.541 137.243 150.541 137.243C150.541 137.243 154.674 137.37 166.089 126.388L166.092 126.39Z" fill="#D3F1F9"/>
<path d="M8.47448 46.122C11.4987 45.8731 14.5973 46.4617 17.5352 47.2247C19.3461 47.7286 20.9349 48.8175 22.165 50.2776L22.0792 50.4789C21.4093 50.516 20.7876 50.445 20.1814 50.345C19.0004 50.1318 17.8592 49.8224 16.8018 49.2567C15.7707 48.6787 14.6934 48.219 13.5868 47.8274C11.9165 47.1971 10.2204 46.7263 8.46454 46.3421L8.47745 46.1241L8.47448 46.122Z" fill="#1A6FAD"/>
<g opacity="0.8">
<path d="M84.9996 91.0683C85.2582 88.6841 87.7681 86.8292 90.06 87.0307C90.4327 87.048 90.4875 87.3014 90.8354 87.2073C91.1724 87.1097 91.5513 86.6764 91.8336 86.2675C92.7331 85.0163 92.7967 83.3176 93.1052 81.8212C93.2206 81.315 93.3953 80.838 93.5641 80.3567C93.6613 80.1007 93.6743 79.9539 93.6148 80.0272C93.588 80.066 93.5652 80.1567 93.5549 80.1716C93.5404 80.1925 93.528 80.1658 93.5004 80.0969C93.4523 79.9554 93.3294 79.6532 93.272 79.1347C93.1165 78.1757 93.6618 76.9382 94.3084 76.3667C94.7775 75.8731 95.5992 75.4002 96.108 75.0154C96.8849 74.4792 97.6778 73.9009 98.6651 73.2969L98.9887 73.4619C99.0853 74.6598 98.8032 75.7915 98.3421 76.8305C98.062 77.5176 97.5193 78.2394 97.1461 78.8374C97.0735 78.9683 97.0577 79.0551 97.0822 79.0325C97.0984 79.0218 97.1081 78.9886 97.1242 78.9332C97.1332 78.8817 97.1357 78.8077 97.1278 78.8064C97.1262 78.9302 97.2623 79.6612 97.2483 80.008C97.3106 80.6282 96.8675 81.6667 96.5944 81.9662C96.0366 82.8379 95.3499 83.6082 94.5904 84.3175C93.8274 85.051 93.2099 85.862 92.8655 86.8152C92.659 87.3765 92.6426 87.8867 92.3822 88.4942C91.6601 90.1671 89.5584 90.2981 88.0951 90.6056C87.2735 90.784 86.4268 91.0115 85.2797 91.3092L85.0005 91.0734L84.9996 91.0683Z" fill="#91D1E0"/>
<path d="M81.4976 89.8537C80.7519 88.4491 81.312 86.4854 82.7034 85.7959C83.4237 85.4955 84.3115 85.6186 84.9331 85.4483C85.2508 85.3725 85.591 85.2192 85.561 85.1218C85.5458 85.0797 85.4564 85.1004 85.3944 85.1453C85.3375 85.1893 85.2498 85.1755 85.141 85.1153C84.3934 84.7893 84.0847 83.6354 84.3106 82.8601C84.416 82.4002 84.5495 82.1299 84.6181 81.7552C84.7816 80.8013 85.2368 80.1101 85.8548 79.3304C86.2283 78.8663 86.6414 78.3769 87.2731 77.8078L87.635 77.8217C88.7137 79.0321 88.9378 80.6029 88.5728 82.0728C88.3893 82.7355 87.9493 83.3663 87.5011 83.8617C87.3051 84.0559 87.3187 84.0299 87.1882 83.8025C86.8067 83.3818 87.0337 84.91 86.9149 85.1908C86.8468 85.5392 86.6313 85.8577 86.3909 86.0201C86.0114 86.2881 85.7367 86.2697 85.4306 86.5144C84.7547 87.0385 84.9149 88.2154 84.2348 88.7008C83.5077 89.2863 82.7786 89.625 81.8351 89.9796L81.4955 89.8567L81.4976 89.8537Z" fill="#91D1E0"/>
<path d="M31.0117 51.5001C30.8896 50.6579 30.9021 50.1398 30.9614 49.6822C31.0383 49.2505 31.0832 48.8584 31.4589 48.5963C32.5438 48.0119 33.3158 47.6498 32.5046 46.2421C31.9554 45.3839 31.6715 44.1801 31.7867 43.1864C32.0825 42.0273 32.7645 40.7254 33.9996 40.3336L34.3256 40.4958C34.5137 40.845 34.6818 41.0951 34.8322 41.3323C35.2955 41.9815 35.5967 42.7245 35.6327 43.5184C35.602 44.537 35.1421 45.6453 34.4726 46.4293C32.9431 48.1641 34.9174 49.2267 33.8962 50.7187C33.2682 51.5323 32.4443 51.9822 31.2564 51.7738L31.0096 51.5031L31.0117 51.5001Z" fill="#91D1E0"/>
<path d="M44.2959 74.3828C44.4018 73.4548 44.5911 72.5598 44.7912 71.6681L45.8211 71.8797C45.9496 71.9048 45.9938 71.8473 46.0507 71.8033C46.3753 71.5317 46.6926 71.0274 46.7307 70.5817C46.8839 69.3931 46.8024 68.5316 47.418 67.2817C47.7467 66.5624 48.6299 65.8212 49.3074 65.5571L50.011 65.236C50.8195 64.8784 51.1319 64.0226 51.4931 63.1347C51.8718 62.1702 52.2185 61.0087 52.8485 59.9298C53.9931 57.8946 56.3411 56.2934 55.9868 53.8487C55.7923 52.9909 55.4172 52.4009 55.327 51.3278C55.1484 48.7503 57.1784 47.0015 58.162 44.9178C58.973 43.2056 59.4358 41.351 59.6401 39.4673C59.7691 38.3907 59.7168 37.5189 59.7635 36.3565C59.7695 35.125 60.2896 33.5523 60.9949 32.5631C62.1338 30.7602 63.7544 29.4185 63.0536 27.2386L63.3313 27.0093C64.3736 27.792 64.6134 29.2757 64.4694 30.5021C64.335 32.0477 63.3602 33.6514 63.1759 35.1346C63.0904 36.0459 63.3083 36.8892 63.4025 37.9116C63.8037 41.6392 62.4661 45.3879 60.1206 48.1955C59.298 49.2523 57.932 50.3213 57.6224 51.4291C57.4537 51.9998 57.6436 53.0372 57.5905 53.78C57.4665 56.5333 54.9027 58.1716 54.2478 60.5668C53.8572 62.0671 54.2534 63.9262 53.6957 65.5789C53.485 66.2489 53.0817 66.9994 52.4311 67.5638C51.953 68.0065 51.1688 68.3547 50.6308 68.5447C50.3027 68.6933 50.2914 68.6584 50.0961 68.8709C49.8565 69.1409 49.5782 70.2354 49.4292 70.7265C49.0302 72.5911 46.6173 74.6768 44.8983 73.0432L46.0358 72.7787C45.5985 73.38 45.1385 73.9694 44.6258 74.5389L44.2989 74.3849L44.2959 74.3828Z" fill="#91D1E0"/>
<path d="M49.6582 78.9914C48.5605 77.5534 49.0968 75.3816 51.21 75.8611C51.6009 75.9672 51.8583 76.0937 52.0169 76.1136C52.1794 76.1408 52.1281 76.055 52.0525 76.0365C51.9588 76.0185 51.9075 76.0352 51.9177 75.9756C51.9593 75.8002 51.9985 75.4938 51.9777 75.2871L51.906 74.6869C51.4843 71.4315 53.3437 69.8465 56.5068 70.2843C57.8957 70.3919 59.2167 69.2151 59.4648 67.787C59.6798 66.8035 59.2433 65.9955 58.7058 65.1865C58.3823 64.6692 58.2511 63.8926 58.2895 63.2866C58.3647 62.096 58.4342 61.0929 58.7127 59.9408C59.1656 57.8832 60.5106 56.3132 62.5874 55.7896C62.7405 55.7343 62.7247 55.6739 62.5502 55.7986C62.3818 55.9144 62.2469 56.2058 62.241 56.3934C62.2325 56.5658 62.2357 56.51 62.1583 56.3788C60.3649 53.5991 61.8186 50.8222 63.2309 48.3547C64.7649 45.6087 66.3872 42.9972 68.4616 40.5759L68.7884 40.7299C68.3425 43.9167 67.4561 46.8771 66.4154 49.8562C66.0268 51.1613 65.1931 52.5669 65.1774 53.8761C65.2085 54.2152 65.406 54.486 65.5596 54.9485C66.3069 56.7019 65.5423 58.6923 63.5637 59.1123C62.8244 59.274 62.7729 59.246 62.5015 59.3638C61.4748 59.8904 60.9088 60.9659 60.3304 62.1619C60.0256 62.9873 59.4665 63.7777 59.7877 64.6503C59.9735 65.1046 60.3073 65.6517 60.4309 66.164C61.054 68.5645 60.1206 71.3306 58.0053 72.6653C57.1195 73.2439 55.9697 73.2318 55.0819 73.519C55.0403 73.5472 55.0775 73.5381 55.0839 73.516C55.0983 73.4951 55.0888 73.4704 55.0615 73.5356C55.0089 73.663 54.9596 74.0737 54.9623 74.5753C54.9699 75.134 54.895 76.0617 54.6142 76.6411C53.9207 78.4326 51.9421 79.1471 50.5278 77.6874C50.4867 77.6446 50.4822 77.619 50.4966 77.5982C50.5131 77.5743 50.4956 77.5484 50.5074 77.5122C50.512 77.4798 50.4969 77.4378 50.4627 77.4489C50.1025 77.6503 50.0434 78.344 49.9975 78.8777L49.6552 78.9893L49.6582 78.9914Z" fill="#91D1E0"/>
<path d="M60.102 80.5599C59.6103 77.8336 61.0135 74.6938 63.9952 74.3008C64.5963 74.205 65.6101 74.3248 66.1111 74.6749C66.105 74.6839 66.0521 74.6772 65.9508 74.6894C65.7686 74.6972 65.4096 74.8905 65.3521 75.0635C65.3218 75.1266 65.3322 75.1563 65.3522 75.1529C65.4042 75.1544 65.4869 75.0218 65.5973 74.8555C66.1847 73.9601 66.8938 72.978 67.3157 72.0086C67.7551 71.0072 68.0368 69.9463 68.2029 68.8605C68.2694 68.2968 68.4461 67.4775 68.2375 67.0112C67.9311 66.4881 67.5997 66.0141 67.3757 65.2244C67.2196 64.7333 67.2123 64.0587 67.3152 63.5256C67.5204 62.4857 68.2337 61.4976 68.8547 60.7647C69.0816 60.481 69.2813 60.2494 69.3938 60.0801C69.5133 59.9069 69.5503 59.8085 69.5325 59.8984C69.5085 59.9972 69.6338 60.1807 69.5625 59.9511C68.8075 58.0222 69.6507 56.5963 71.254 55.5678C72.1557 54.8575 72.9587 53.8355 73.5713 52.4362L73.9333 52.4368C74.7505 54.3076 74.124 56.7323 72.8451 58.3859C72.5937 58.7948 72.8107 58.7495 72.8485 58.4642C72.861 58.2412 72.8462 58.2306 73.0049 58.5451C73.6846 59.7953 73.2969 61.5477 72.4839 62.4688C71.8704 63.2741 71.1912 63.7199 70.6134 64.3901C70.566 64.4588 70.5119 64.4155 70.509 64.6053C70.5352 65.2845 70.8444 66.1621 70.7045 67.0435C70.4707 68.4065 69.617 69.169 69.1407 70.3581C68.5123 71.6971 68.1735 73.1098 68.0971 74.6034C68.0364 75.1266 68.066 75.8841 67.8696 76.4439C67.7139 76.8678 67.4068 77.3126 66.9366 77.5646C66.4687 77.8451 65.8209 77.8805 65.357 77.7711C64.7625 77.6396 64.7839 77.5702 64.3314 77.5403C62.5691 77.6338 61.6346 79.4673 60.4448 80.6717L60.099 80.5577L60.102 80.5599Z" fill="#91D1E0"/>
<path d="M154.563 132.341C153.732 134.193 151.109 134.639 149.576 133.451C148.802 132.806 148.442 131.734 148.066 131.066C147.842 130.588 147.54 130.761 147.179 130.99C146.648 131.321 146.042 131.705 145.428 131.887C144.155 132.21 142.729 132.194 141.498 131.679C139.865 130.911 138.505 129.368 138.408 127.454L138.679 127.215C140.266 127.48 141.422 127.673 142.809 128.001C143.646 128.26 144.494 128.676 145.356 128.936C145.835 129.127 146.335 129.387 146.877 129.467C147.355 129.527 147.92 129.53 148.377 129.831C148.623 129.989 148.79 130.171 148.945 130.3C149.487 130.805 150.312 130.676 150.861 130.69C151.435 130.694 151.845 130.961 152.373 131.165C153.042 131.461 153.649 131.712 154.405 132.004L154.56 132.339L154.563 132.341Z" fill="#91D1E0"/>
<path d="M160.942 126.733C160.881 127.316 160.445 127.826 159.882 128.095C157.772 129.147 155.286 126.519 156.278 124.343L158.463 126.137C157.833 126.29 157.071 126.245 156.38 126.282C155.681 126.305 155.064 126.467 154.381 126.622C152.841 127.067 151.093 126.856 149.883 125.699C147.588 123.923 146.514 120.894 147.521 118.067L147.871 117.977C149.912 119.704 151.238 121.142 152.368 123.353C152.934 124.126 153.192 125.242 154.294 125.405C155.607 125.63 156.249 124.237 157.02 123.416L159.205 125.21C159.395 125.275 159.287 125.457 159.289 125.673C159.378 126.18 160.024 126.464 160.683 126.48L160.943 126.738L160.942 126.733Z" fill="#91D1E0"/>
</g>
<path d="M57.7487 45.9034C57.6007 44.9153 57.9186 44.0247 58.2789 43.2848C58.6453 42.5939 59.0234 41.9246 59.599 41.4325C60.4317 40.8126 61.5245 40.0671 61.2614 38.8406C61.1158 38.0548 60.4992 37.7513 59.9758 37.1715C58.6161 35.7255 58.4931 33.1649 59.5474 31.5365C60.1876 30.4045 60.9399 29.6246 61.8829 28.665L62.1658 28.725C62.4828 29.6291 62.44 30.5653 62.3553 31.3822C62.2102 32.5435 62.0463 33.4107 61.8622 34.3971C61.7569 35.0122 61.808 35.3562 62.0055 36.0412C62.4197 37.2867 62.2826 38.9572 62.052 40.133C61.9226 40.9759 61.943 41.9751 61.5956 42.8312C60.8453 44.4055 59.5305 45.1702 58.0143 46.0268L57.7528 45.8974L57.7487 45.9034Z" fill="#FDFFFF"/>
<path d="M80.6172 35.2744C80.2362 34.36 80.3358 33.4958 80.4934 32.5929L81.6375 32.5702C82.4111 32.5629 83.2461 32.8847 83.6457 33.5986L81.9569 33.6766C82.4347 33.4352 83.0222 33.3436 83.4406 33.0018C83.6655 32.8242 83.7994 32.5726 84.1681 32.4892C84.3886 32.4466 84.5736 32.481 84.7135 32.51C85.1891 32.6189 85.6161 32.5861 86.0876 32.6431C86.9764 32.7584 87.7837 33.1717 88.5134 33.6587C88.5827 33.7127 88.5838 33.7046 88.4734 33.6523C88.381 33.5995 88.087 33.5493 87.9891 33.5817C87.7752 33.6468 88.1441 33.608 88.3115 33.6165C89.1308 33.6331 89.9753 33.7612 90.9225 34.2613L90.9967 34.5461C90.417 35.4363 89.7376 35.9565 89.0301 36.3631C88.333 36.8574 87.2213 36.6983 86.6085 36.1258C85.9028 35.469 85.2544 34.7551 84.7307 33.9122C84.631 33.7607 84.4745 33.5951 84.3503 33.4661C84.306 33.421 84.2902 33.4053 84.3165 33.3929C83.886 33.7974 83.9047 34.831 83.6638 35.4559L82.0485 35.2926C81.6947 35.2709 81.5494 35.0955 81.2799 34.9069L82.5237 34.2385C82.081 34.7634 81.5825 35.1504 80.8749 35.3965L80.6092 35.2731L80.6172 35.2744Z" fill="#FDFFFF"/>
<path d="M174.038 105.333C173.4 104.849 173.051 104.318 172.784 103.779C172.541 103.236 172.327 102.686 172.419 102.083C172.505 101.482 172.881 100.873 172.817 100.324C172.742 99.3788 171.903 99.1392 171.141 98.9631C170.249 98.6272 169.255 98.0667 168.719 97.1889C167.942 95.8837 167.911 94.0575 169.048 92.9914L169.336 93.0374C169.75 93.6593 170.072 94.0943 170.393 94.4715C170.842 95.0244 171.233 95.3318 171.586 95.8694C171.867 96.2981 172.285 96.6774 172.61 97.1592C173.198 97.9859 173.335 99.2651 173.711 100.078C173.962 100.641 174.516 101.176 174.799 101.712C175.082 102.253 175.058 102.842 175.005 103.432C174.93 104.029 174.772 104.637 174.324 105.292L174.039 105.338L174.038 105.333Z" fill="#FDFFFF"/>
<path d="M160.949 96.115C161.739 95.8208 162.301 95.8757 162.792 96.04C164.115 96.4132 163.324 98.1497 164.962 98.2092C165.261 98.227 165.543 98.1794 165.691 98.0938C165.878 97.9831 165.712 97.8822 165.543 97.8767L167.356 99.1171C167.409 99.4316 167.362 99.7765 167.279 100.02C167.195 100.263 167.106 100.43 167.036 100.55C166.9 100.773 166.85 100.871 166.899 100.799C166.974 100.692 167.037 100.395 166.977 100.244C166.939 100.093 166.852 100.071 166.829 100.13C166.775 100.26 166.847 100.593 166.874 101.017C166.921 101.488 166.833 102.24 166.311 102.378L166.054 102.235C165.936 102.039 165.77 102.009 165.647 102.014C165.136 102.001 164.845 101.921 164.385 101.422C163.724 100.695 163.841 99.2595 164.608 98.7086C164.599 98.8444 164.5 99.1347 164.569 99.3574L166.381 100.598C165.341 100.811 164.535 100.229 164.233 99.322C163.985 98.7878 163.584 98.4873 162.94 98.5567C162.628 98.578 162.301 98.6202 162.046 98.553C161.786 98.4917 161.606 98.3091 161.429 98.1205C161.091 97.7225 160.824 97.215 160.783 96.3615L160.942 96.1189L160.949 96.115Z" fill="#FDFFFF"/>
<path d="M35.7403 31.7724C37.5708 30.9494 39.3875 30.8471 41.2723 30.8069C43.3632 29.7293 45.8312 29.1668 48.2861 29.5616C47.4706 30.5102 46.5531 31.1629 45.6415 31.7619C44.7222 32.3464 43.7953 32.8454 42.8593 33.2934C42.6237 33.3964 42.2376 33.6144 41.6396 33.6762C40.6478 33.7099 39.8581 33.4383 38.9242 33.2017C37.8526 32.8752 36.7862 32.4769 35.7424 31.7694L35.7403 31.7724Z" fill="#FDFFFF"/>
</g>
<defs>
<clipPath id="clip0_5_358">
<rect width="200" height="155" fill="white"/>
</clipPath>
</defs>
</svg>
