<svg width="200" height="188" viewBox="0 0 200 188" fill="none" xmlns="http://www.w3.org/2000/svg">
<g clip-path="url(#clip0_4_146)">
<path opacity="0.6" d="M199.945 54.9722C199.28 44.6085 191.275 34.7643 180.99 33.2877C177.238 32.7499 173.409 33.2604 169.63 32.955C160.987 32.2486 152.858 26.9346 148.746 19.3053C146.193 14.5701 145.045 8.96898 141.379 5.03587C136.506 -0.19612 128.255 -1.04381 121.431 1.08909C114.606 3.22199 108.858 7.7977 103.282 12.2823C100.141 14.8117 96.8819 17.4869 95.3 21.1967C92.4918 27.7823 95.765 35.4798 94.2606 42.4801C81.8016 40.051 68.2622 44.1299 59.2177 53.0307C50.1732 61.9315 45.8881 75.408 48.1264 87.8954C47.6523 85.2476 33.4883 87.2255 31.7104 87.6767C26.4132 89.0166 20.7832 91.7693 17.0496 95.8574C9.37274 104.257 1.48616 112.843 0.123102 124.756C-0.574382 130.854 1.65027 138.593 7.71336 139.55C9.68273 139.86 11.684 139.349 13.6807 139.327C17.9614 139.276 21.9183 141.437 25.6474 143.538C30.6437 146.35 36.0048 149.576 38.0288 154.945C39.1138 157.821 39.0819 160.975 39.4238 164.033C40.1714 170.764 42.8109 177.277 46.9548 182.632C48.2312 184.282 49.6991 185.863 51.5864 186.761C54.5268 188.165 57.996 187.704 61.1552 186.907C83.2878 181.324 100.005 159.102 99.225 136.291C104.267 134.915 109.564 136.761 114.784 137.071C125.884 137.727 136.679 130.973 142.387 121.429C148.094 111.886 149.116 100.032 146.818 89.1533C149.179 86.8335 153 87.3485 156.291 87.7405C166.607 88.971 177.521 87.1708 186.119 81.3418C194.716 75.5128 200.615 65.3405 199.95 54.9768L199.945 54.9722ZM118.285 77.3039C110.626 73.3069 106.195 65.1491 102.576 57.3056C101.235 54.4025 100.283 49.7858 104.08 48.2773C107.485 46.9237 113.366 49.2298 116.694 50.0911C118.527 50.5651 120.364 51.0983 122.046 51.9643C124.517 53.2358 126.577 55.1773 128.419 57.2509C134.031 63.5676 137.851 71.2424 141.389 78.9172C141.689 79.5644 141.99 80.2981 141.74 80.9681C141.334 82.0664 139.843 82.1758 138.676 82.071C134.541 81.6973 130.434 81.0319 126.39 80.0839C123.6 79.4322 120.815 78.6346 118.276 77.3084L118.285 77.3039ZM118.413 85.2612C117.61 85.7944 116.607 85.8765 115.646 85.9494C113.535 86.1044 111.424 86.2548 109.313 86.4097C108.52 86.469 107.695 86.5236 106.943 86.2639C105.935 85.9175 105.197 85.0698 104.504 84.2586C103.693 83.3015 102.881 82.3444 102.07 81.3828C101.723 80.9726 101.372 80.5533 101.204 80.0429C101.062 79.6099 101.071 79.1405 101.085 78.6848C101.131 77.4087 101.012 71.8759 102.092 71.0647C103.984 69.6427 105.211 73.1657 106.136 74.5329C109.095 78.8853 114.068 81.5195 119.179 82.7774C119.689 83.5932 119.206 84.7326 118.404 85.2612H118.413ZM141.079 68.0841C139.314 65.7051 137.851 63.1164 136.392 60.5369C135.389 58.764 134.386 56.9866 133.383 55.2137C132.577 53.7827 129.855 51.2032 130.398 49.5078C130.858 48.0813 134.888 46.7642 136.155 47.4478C136.88 47.8397 136.73 48.9107 137.035 49.6764C137.701 51.3581 140.299 51.1849 141.466 52.5658C141.949 53.1355 142.123 53.9012 142.246 54.6395C143.007 59.1195 142.601 63.7955 141.079 68.0795V68.0841ZM96.2163 31.6379C96.3439 30.6717 96.8408 29.8012 97.356 28.9718C104.645 17.177 116.101 9.58424 130.265 9.88503C132.919 9.93972 135.672 10.318 137.883 11.7855C140.773 13.7042 142.278 17.2408 142.487 20.7045C142.697 24.1682 141.767 27.5954 140.668 30.8813C138.968 35.9721 136.429 41.3544 131.542 43.5739C128.123 45.1235 124.189 44.8181 120.446 44.4809C116.247 44.1026 112.053 43.7198 107.855 43.3415C105.739 43.1501 103.533 42.9313 101.737 41.8011C99.5852 40.4475 98.3817 38.0366 97.283 35.7442C96.663 34.4499 96.0294 33.0598 96.2163 31.6379ZM77.0104 48.3684C81.5509 46.714 86.9666 45.8527 90.951 48.5826C95.3456 51.5951 96.2026 57.6155 96.6676 62.9204C97.0779 67.642 97.4836 72.4775 96.2664 77.0578C95.5917 79.6008 94.3244 82.1257 92.1317 83.5795C90.6774 84.5457 88.936 84.9604 87.231 85.325C79.7912 86.9202 72.2055 87.8453 64.597 88.0823C61.839 88.1689 58.8941 88.1142 56.5919 86.592C54.1029 84.9468 52.8857 81.8294 52.8674 78.8443C52.7854 65.6276 65.3902 52.6023 77.0104 48.3638V48.3684ZM79.6818 103.605C85.3529 109.981 88.6078 118.239 90.0073 126.652C90.1076 127.254 90.1623 127.965 89.711 128.375C89.515 128.553 89.2551 128.639 88.9998 128.717C84.3044 130.125 79.1439 129.441 74.6353 127.509C70.1313 125.572 66.2199 122.455 62.7553 118.987C59.7146 115.947 56.911 112.506 55.5616 108.422C54.3126 104.644 54.422 100.647 54.8049 96.737C55.238 92.3162 57.4125 92.7173 61.5336 93.3553C68.5449 94.4445 74.9955 98.3366 79.6773 103.601L79.6818 103.605ZM52.8674 116.02C54.3673 116.047 56.1315 121.22 56.7059 122.336C57.0387 122.988 57.3715 123.64 57.7817 124.246C60.1477 127.764 64.556 129.182 68.6224 130.385C69.2651 130.576 70.0629 131.269 69.5751 131.734C69.4657 131.839 69.3199 131.884 69.174 131.93C67.5192 132.44 65.8188 132.955 64.091 132.809C62.81 132.7 61.5792 132.231 60.2982 132.108C59.2132 132.007 58.0872 132.153 57.0615 131.789C56.1452 131.465 55.4158 130.768 54.7183 130.089C52.4845 127.919 50.0957 125.404 50.0775 122.291C50.0684 120.992 51.1762 115.988 52.8674 116.02ZM10.9273 133.42C10.0246 133.192 9.0901 132.923 8.40629 132.29C7.3122 131.274 7.16632 129.619 7.08882 128.124C6.84721 123.394 6.62839 118.513 8.26953 114.069C9.12201 111.758 10.4532 109.657 11.9165 107.675C15.9464 102.201 21.1388 97.4479 27.366 94.7134C31.5782 92.8631 36.2828 91.9926 40.8735 92.4347C46.2345 92.9497 48.3224 94.4947 48.8011 99.9819C49.494 107.944 48.9105 116.02 47.0733 123.799C46.3667 126.803 45.3319 129.97 42.8793 131.834C41.343 133.001 39.4192 133.52 37.5274 133.921C28.7746 135.772 19.6025 135.599 10.9273 133.42ZM32.7316 144.303C31.3731 143.137 26.8919 141.036 27.48 139.172C28.223 136.829 34.5779 136.683 36.415 136.884C39.8888 137.262 42.0086 137.28 43.44 140.471C44.0463 141.82 43.6634 147.94 40.3811 152.771C38.3981 150.506 33.9533 145.352 32.727 144.303H32.7316ZM91.302 150.903C87.5091 162.588 80.1195 173.075 70.3912 180.576C67.8565 182.532 65.0255 184.341 61.839 184.628C60.0018 184.797 58.0234 184.468 56.3959 185.348C53.9023 184.427 52.2155 182.08 51.0713 179.679C49.9271 177.277 49.1567 174.684 47.6842 172.469C46.2664 170.331 44.2196 168.581 43.2577 166.202C42.4781 164.279 42.4918 162.128 42.7015 160.063C43.2394 154.681 45.031 149.435 47.8665 144.828C50.9254 139.855 54.6864 138.046 60.3483 136.925C71.0111 134.81 82.107 134.906 92.7334 137.198C93.6634 141.747 92.7334 146.482 91.302 150.898V150.903ZM92.8292 111.549C93.2349 110.423 87.7644 104.576 86.9393 103.619C84.7146 101.035 82.221 98.6329 79.3262 96.8099C77.3842 95.5885 73.3543 94.2577 76.8281 92.5122C79.308 91.2634 84.3819 90.7895 87.1171 90.9854C90.6182 91.2361 94.2424 93.2323 95.3137 96.5775C95.9017 98.4278 95.6601 100.429 95.3137 102.338C94.7438 105.469 93.9141 108.555 92.8383 111.549H92.8292ZM142.241 109.12C141.361 110.61 139.971 111.79 139.319 113.395C138.831 114.593 138.804 115.924 138.489 117.177C137.386 121.575 133.055 124.301 128.948 126.219C126.4 127.409 123.792 128.466 121.157 129.441C117.241 130.891 113.166 132.167 108.99 132.094C104.814 132.021 100.474 130.408 98.017 127.031C95.4003 123.439 95.3364 118.627 95.7558 114.206C96.4077 107.356 98.1948 100.091 102.968 94.8775C105.201 92.4393 107.454 92.6854 110.704 92.257C114.706 91.7283 118.673 90.9717 122.616 90.1149C126.295 89.3174 130.051 88.4332 133.789 88.8981C136.853 89.2809 139.939 90.7165 141.566 93.3416C142.77 95.2877 143.053 97.6439 143.29 99.9181C143.613 103.045 143.85 106.412 142.25 109.115L142.241 109.12ZM145.049 36.168C145.241 34.5729 145.113 27.2673 147.019 26.7067C148.546 26.2601 152.288 31.1138 153.647 32.162C157.139 34.8464 161.255 36.7149 165.573 37.5717C161.21 38.661 156.847 39.7502 152.485 40.8394C152.27 40.8941 152.042 40.9488 151.828 40.885C151.34 40.7437 151.213 40.1376 151.085 39.6499C150.447 37.1388 147.538 35.4616 145.04 36.168H145.049ZM193.864 59.434C193.777 62.0728 193.495 64.7252 192.674 67.2318C191.147 71.8941 187.796 75.8318 183.766 78.6255C179.732 81.4193 175.041 83.142 170.264 84.2723C163.038 85.9813 154.6 86.0907 149.111 81.0911C147.839 79.9335 146.759 78.4934 146.321 76.8299C145.975 75.5082 146.043 74.1182 146.111 72.7509L146.841 58.8233C147.11 53.7098 148.719 48.9746 153.907 47.2792C159.487 45.4607 165.436 43.5056 171.28 42.8447C177.216 42.1702 183.534 43.0498 188.416 46.4862C189.925 47.5481 191.293 48.8606 192.218 50.4557C193.764 53.1219 193.964 56.3486 193.864 59.4294V59.434Z" fill="#C8F6FF"/>
<path d="M102.968 132.076C108.324 134.004 114.282 133.06 119.767 131.515C125.109 130.011 130.297 127.96 135.225 125.404C131.606 131.251 124.567 134.149 117.743 135.006C110.918 135.863 103.998 135.056 97.128 135.366C98.4591 141.045 97.2876 147.084 94.9261 152.42C92.5647 157.757 89.0773 162.502 85.5808 167.173C87.696 162.101 90.992 157.584 93.0571 152.493C95.1176 147.398 95.7649 141.218 92.6696 136.679C88.2522 135.029 83.4382 134.824 78.7245 134.888C69.3563 135.011 59.9426 136.127 51.012 138.958C50.2872 139.186 49.5532 139.432 48.7919 139.413C47.9805 139.395 47.2146 139.085 46.4442 138.839C45.2225 138.452 43.946 138.224 42.6605 138.169C43.7409 136.237 45.7239 134.842 47.903 134.473C49.1338 134.263 50.4194 134.368 51.6183 134.008C52.8173 133.648 53.9615 132.595 53.8248 131.351C55.8944 131.985 57.9686 132.623 60.0383 133.256C61.7752 133.789 63.5531 134.327 65.372 134.282C67.1909 134.236 69.0873 133.498 70.0766 131.971C70.2954 131.634 70.4686 131.214 70.3364 130.832C70.1495 130.285 69.4748 130.116 68.9004 130.025C65.2899 129.437 61.178 128.079 59.9745 124.629C63.2112 123.157 66.9037 124.98 70.031 126.666C73.1765 128.361 76.4269 129.979 79.9325 130.668C83.4382 131.356 87.2812 131.028 90.258 129.054C90.7823 128.708 91.2928 128.293 91.5709 127.728C92.045 126.766 91.7533 125.627 91.5892 124.565C91.3065 122.756 91.4387 120.887 91.9721 119.137C92.1864 118.435 92.4644 117.747 92.5693 117.022C92.9385 114.534 91.2883 112.246 89.7338 110.273C91.2473 110.546 92.6012 111.581 93.2622 112.966C93.8138 111.786 94.3654 110.606 94.917 109.43C94.1375 111.102 94.8897 115.254 94.6526 117.246C94.4156 119.237 94.0463 120.933 94.4612 122.87C95.3638 127.113 98.9606 130.627 102.963 132.067L102.968 132.076Z" fill="#B5E2E8"/>
<path d="M120.943 82.6226C121.212 82.8368 121.485 83.0601 121.622 83.37C121.964 84.1585 121.253 85.0016 120.523 85.4619C118.34 86.8292 115.618 86.9203 113.042 86.9704C109.938 87.0297 106.834 87.0889 103.729 87.1527C104.044 88.9393 103.82 90.8169 103.091 92.4804C105.584 92.1204 107.713 90.5572 110.025 89.5591C113.248 88.1645 116.822 87.8683 120.323 87.5903C123.427 87.3441 126.527 87.098 129.632 86.8519C132.454 86.6286 135.389 86.419 138.029 87.4353C142.528 89.1671 145.072 94.0892 145.719 98.8655C145.71 95.4747 145.697 92.0794 145.687 88.6886C145.687 88.005 145.706 87.2576 146.139 86.7289C146.526 86.2549 147.16 86.0726 147.757 85.9359C149.818 85.471 151.947 85.3115 154.053 85.4573C148.569 82.4312 143.891 77.9512 140.632 72.6052C141.006 74.8885 142.519 76.8072 143.344 78.9675C144.169 81.1277 143.992 84.0947 141.917 85.1201C140.673 85.7354 139.191 85.43 137.842 85.1019C130.571 83.3244 123.322 81.3009 116.252 78.8444C117.715 80.1752 119.379 81.3875 120.943 82.6272V82.6226Z" fill="#B5E2E8"/>
<path d="M188.612 38.0276C193.964 41.5779 197.789 47.3568 198.961 53.6689C196.64 50.228 194.042 46.9785 191.193 43.9569C189.137 41.7784 186.907 39.6866 184.213 38.3786C177.243 34.9923 168.732 37.4716 161.356 35.0926C169.963 33.0873 181.018 32.9916 188.612 38.0231V38.0276Z" fill="white"/>
<path d="M38.3479 90.9674C40.8051 90.817 43.3808 90.9491 45.5507 92.1158C47.7207 93.2825 49.3709 95.7026 48.9743 98.1317C49.4165 94.9871 49.7174 91.3593 47.5246 89.0669C46.0522 87.5264 43.791 87.016 41.6621 86.975C37.5 86.8884 33.4655 88.2784 29.5359 89.6502C28.2868 90.0878 27.0195 90.5298 25.9118 91.2545C23.017 93.1504 21.4488 96.7827 18.2896 98.2001C24.7402 93.4557 30.475 91.4504 38.3434 90.9719L38.3479 90.9674Z" fill="white"/>
<path d="M140.267 11.5259C141.817 13.1529 142.683 15.3131 143.317 17.4688C143.777 14.388 143.094 11.1522 141.43 8.52249C138.243 7.20994 134.915 5.87459 131.478 6.10247C129.098 6.26198 126.842 7.16436 124.631 8.05763C121.558 9.29726 118.454 10.5551 115.787 12.5194C120.482 9.52514 126.117 8.01661 131.683 8.27183C134.272 8.39032 138.453 9.61629 140.267 11.5259Z" fill="white"/>
<path d="M83.0188 130.946C84.3591 131.292 85.713 131.638 87.0988 131.661C88.1656 131.679 89.2369 131.506 90.2991 131.62C92.6605 131.875 94.7119 133.593 95.7604 135.726C96.8089 137.859 96.9639 140.343 96.6266 142.695C95.8106 140.858 94.7803 139.117 93.5631 137.522C93.1209 136.939 92.6423 136.369 92.0314 135.959C91.5254 135.617 90.9418 135.398 90.3674 135.198C87.7918 134.304 85.1295 133.657 82.4262 133.27C80.7121 133.024 78.9661 132.883 77.3341 132.308C74.0017 131.137 71.2528 128.229 67.7243 128.065C73.0215 128.311 77.8811 129.628 83.0142 130.946H83.0188Z" fill="white"/>
<path d="M90.0939 43.4328C89.3189 41.186 88.5394 38.9391 87.7644 36.6923C89.3873 38.4241 90.8051 40.3428 91.9858 42.4028C92.8793 39.9281 94.0235 37.5445 95.3911 35.3023C94.6572 38.1233 93.5448 40.8442 92.0997 43.3781C95.7923 43.6288 98.6597 46.5729 101.14 49.3165C97.7571 47.9994 94.4748 46.4225 91.3339 44.6041C91.3156 47.4115 90.837 50.2143 89.9207 52.8622C89.2961 50.3055 88.9497 47.6849 88.8813 45.0507C82.8364 44.5539 76.5317 44.0936 70.9199 46.3906C69.4292 47.0013 68.048 47.8763 66.6165 48.5645C71.9411 42.5942 82.8775 43.3371 90.0939 43.4328Z" fill="white"/>
</g>
<defs>
<clipPath id="clip0_4_146">
<rect width="200" height="187.654" fill="white"/>
</clipPath>
</defs>
</svg>
