<svg width="201" height="201" viewBox="0 0 201 201" fill="none" xmlns="http://www.w3.org/2000/svg">
<g clip-path="url(#clip0_6_568)">
<path d="M60.5482 83.7603C59.8798 84.2508 59.1704 84.8068 58.9735 85.611C58.7767 86.4151 59.4774 87.4347 60.2677 87.1963C60.5948 87.0984 60.8391 86.8187 61.0092 86.5186C61.6023 85.4747 61.4338 84.0517 60.6092 83.1804" fill="white"/>
<path d="M65.7494 84.8702C66.6952 85.0849 67.7374 84.8293 68.4735 84.1995C68.3034 83.5181 67.4677 83.0961 66.8179 83.3615C66.168 83.6268 65.8685 84.5151 66.2223 85.121" fill="white"/>
<path d="M59.0265 90.868C59.6564 90.5656 60.5118 91.1519 60.456 91.8495C60.4003 92.5471 59.4677 92.9934 58.8912 92.5968C58.3147 92.2002 58.3943 91.169 59.0265 90.868Z" fill="white"/>
<path d="M63.5872 88.8579L64.5288 87.3428C65.1296 87.5208 65.7543 87.7126 66.2023 88.1497C66.6504 88.5868 66.8516 89.3467 66.4705 89.8469C66.2987 90.0728 66.0394 90.2131 65.7762 90.3161C64.8306 90.6911 63.7391 90.6792 62.8041 90.286C63.0626 89.8106 63.3249 89.3343 63.5834 88.8589" fill="white"/>
<path d="M68.2171 71.8394C67.5509 72.2929 66.9316 72.8914 66.6959 73.6636C66.4602 74.4357 66.7196 75.3981 67.4389 75.7624C68.3285 76.2123 69.5099 75.4508 69.6475 74.4626C69.785 73.4744 69.0605 72.5016 68.1308 72.1433" fill="white"/>
<path d="M55.8981 78.15C55.8291 77.288 57.1801 76.7677 57.7046 77.453C57.6119 78.3524 57.1768 79.5416 56.2823 79.398C55.7341 79.3109 55.4099 78.582 55.7136 78.1168" fill="white"/>
<path d="M73.9255 87.7424C73.0733 87.2057 71.7599 87.3907 71.2896 88.2824C70.8194 89.1741 71.7105 90.4981 72.6755 90.2107C73.5525 89.949 73.7657 88.8133 73.7445 87.896" fill="white"/>
<path d="M63.6878 80.3019C63.2868 80.5388 62.9805 80.926 62.8425 81.369C63.1421 81.8097 63.8287 81.999 64.2327 81.6522C64.6366 81.3054 64.4133 80.4626 63.8775 80.4752" fill="white"/>
<path d="M81.3548 83.2232C82.2693 83.117 83.0839 84.2151 82.7165 85.061C82.3491 85.9069 80.994 86.0647 80.4445 85.3236C79.895 84.5825 80.4402 83.3293 81.3548 83.2232" fill="white"/>
<path d="M49.1851 86.0497C49.989 85.7713 50.8913 85.7855 51.6858 86.0912C51.8609 86.1573 52.0384 86.247 52.1323 86.4096C52.3589 86.8113 51.8914 87.268 51.4465 87.3935C50.5315 87.6493 49.4763 87.2823 48.9184 86.5172" fill="white"/>
<path d="M83.1931 91.2606C82.7472 91.0349 82.2247 91.6862 82.4702 92.1211C82.7158 92.5561 83.4173 92.5596 83.7547 92.1903C84.0921 91.821 84.0919 91.2313 83.8656 90.7852C83.9168 90.5311 83.4958 90.3613 83.3555 90.5767" fill="white"/>
<path d="M91.0703 88.4691C90.9398 88.0719 91.4056 87.6843 91.8234 87.7216C92.2412 87.7589 92.5815 88.0573 92.888 88.3426C92.8666 88.7987 92.3646 89.1112 91.9073 89.0926C91.4501 89.074 91.0401 88.8246 90.652 88.5814" fill="white"/>
<path d="M92.2731 80.116L92.0213 80.6845C92.3333 81.3682 93.5932 81.1491 93.6571 80.3988C93.2545 80.0485 92.7414 79.8287 92.2094 79.7797" fill="white"/>
<path d="M85.4319 78.2569C85.4543 77.6005 85.8013 76.9277 86.3995 76.658C86.9978 76.3884 87.8233 76.6515 88.0392 77.2701C88.1593 77.6135 88.088 77.9962 87.9696 78.339C87.7066 79.1144 87.107 79.8773 86.2905 79.9349C85.474 79.9925 84.7185 78.919 85.2715 78.3141" fill="white"/>
<path d="M41.1816 93.9182C41.8505 93.3387 42.6741 92.9378 43.5455 92.7685C44.0179 92.678 44.5271 92.6564 44.9595 92.8614C45.3919 93.0665 45.7233 93.5511 45.6232 94.0223C45.4527 94.8193 44.3702 94.9464 43.5662 94.8169C42.6632 94.6716 41.7733 94.4318 40.9183 94.104" fill="white"/>
<path d="M47.0654 99.0679C46.4182 99.2074 46.1334 100.158 46.5953 100.632C47.0571 101.106 48.0149 100.837 48.1651 100.19C47.8468 99.7326 47.4032 99.365 46.893 99.1405" fill="white"/>
<path d="M99.0818 92.1226L99.5619 91.3959C100.337 91.3815 100.961 92.3088 100.659 93.0239C100.358 93.739 99.2553 93.9341 98.7275 93.3649C98.4161 92.9779 98.5058 92.3318 98.9135 92.0446" fill="white"/>
<path d="M107.419 88.8603L106.413 90.6732C106.72 90.8374 107.022 91.0025 107.329 91.1667C107.826 90.9887 108.178 90.462 108.152 89.9338C108.126 89.4056 107.721 88.9204 107.208 88.7958" fill="white"/>
<path d="M118.898 84.1202C118.94 83.3415 119.907 82.7748 120.606 83.1182C121.306 83.4615 121.446 84.5751 120.851 85.0823C120.549 85.3412 120.137 85.4316 119.741 85.4389C119.215 85.4508 118.621 85.2769 118.399 84.8014C118.177 84.3258 118.691 83.6283 119.157 83.8749" fill="white"/>
<path d="M120.532 89.4333L121.365 88.0625C121.611 88.2045 121.86 88.3417 122.107 88.4813C121.939 88.9485 121.718 89.4422 121.281 89.6745C120.845 89.9068 120.16 89.6929 120.127 89.1989" fill="white"/>
<path d="M99.7318 84.9641C99.4857 85.2746 99.2976 85.628 99.1808 86.0068C99.7296 86.534 100.815 86.2043 100.982 85.4627C100.669 85.266 100.353 85.0679 100.042 84.8689" fill="white"/>
<path d="M76.0691 94.7163L76.5511 93.9365C77.2083 94.061 77.7345 94.7377 77.6266 95.3988C77.5187 96.0599 76.7276 96.5369 76.1149 96.2692C75.5022 96.0015 75.3527 95.0197 75.8944 94.6218" fill="white"/>
<path d="M60.647 113.267C60.9846 112.566 62.1822 112.764 62.4962 113.477C62.8102 114.191 62.4438 115.041 61.8869 115.586C61.4353 116.026 60.7783 116.348 60.1786 116.152C59.5304 115.94 59.19 115.173 59.2754 114.496C59.3608 113.818 59.7745 113.229 60.2374 112.725" fill="white"/>
<path d="M66.0956 118.073C65.6077 118.03 65.2898 118.752 65.6202 119.112C65.9506 119.471 66.6531 119.275 66.7902 118.806C66.9272 118.337 66.5057 117.81 66.0172 117.795" fill="white"/>
<path d="M54.29 123.985C54.2738 122.944 55.8533 122.425 56.5896 123.162C57.3259 123.899 57.0548 125.279 56.1994 125.878C55.6667 126.249 54.9287 126.359 54.3634 126.042C53.7981 125.725 53.5016 124.948 53.8115 124.378" fill="white"/>
<path d="M49.3391 113.498C49.4726 112.985 50.3027 113.092 50.5947 113.534C50.9362 114.057 50.8048 114.841 50.2917 115.195C49.7786 115.549 48.9735 115.377 48.6793 114.828C48.385 114.279 48.7169 113.489 49.3214 113.341" fill="white"/>
<path d="M42.228 103.857C41.5531 102.941 40.2957 102.241 39.299 102.787C38.3163 103.325 38.3341 105.015 39.3311 105.527C40.3281 106.039 41.7144 105.077 41.5827 103.965" fill="white"/>
<path d="M37.008 88.3153L38.0508 86.5368C38.9605 86.5107 39.819 87.29 39.8817 88.1961C39.9443 89.1023 39.2058 89.9953 38.2988 90.0995C37.3919 90.2036 36.4731 89.5011 36.3334 88.6015" fill="white"/>
<path d="M36.3189 71.5434C35.7183 72.0157 35.2619 72.7401 35.316 73.5011C35.3701 74.2621 36.0654 74.9822 36.8205 74.8764C37.6403 74.7028 38.0926 73.6988 37.8721 72.8895C37.6517 72.0803 36.9287 71.4907 36.1489 71.1871" fill="white"/>
<path d="M43.4733 82.3887C43.1712 82.6859 42.857 82.9985 42.7421 83.407C42.6272 83.8155 42.7937 84.3323 43.1978 84.454C43.6541 84.59 44.0886 84.1684 44.2863 83.7377C44.4841 83.3069 44.5738 82.8042 44.9141 82.4684C44.6633 81.8329 43.8942 81.4557 43.2368 81.6403" fill="white"/>
<path d="M124.446 95.1504C124.621 94.544 125.629 94.6288 125.922 95.1903C126.216 95.7517 125.986 96.4414 125.67 96.9887C125.243 97.7297 124.443 98.4411 123.626 98.1921C122.886 97.9687 122.565 97.0187 122.795 96.2783C123.025 95.538 123.646 94.9915 124.285 94.5574" fill="white"/>
<path d="M136.343 94.2626C136.015 94.5607 135.786 95.002 135.849 95.4434C135.913 95.8848 136.323 96.2776 136.765 96.2236C137.305 96.1594 137.595 95.4634 137.397 94.9571C137.199 94.4508 136.676 94.139 136.149 94.0038" fill="white"/>
<path d="M89.5135 108.568C90.2184 108.252 91.1567 108.816 91.1991 109.586C91.2415 110.356 90.3537 111.023 89.6298 110.755C88.9059 110.487 88.6746 109.388 89.233 108.856" fill="white"/>
<path d="M79.6814 113.495C79.404 113.975 79.8456 114.682 80.3965 114.644C80.5848 114.328 80.7745 114.011 80.9628 113.696C80.5099 113.422 79.9113 113.411 79.4462 113.665" fill="white"/>
<path d="M48.5078 121.224C48.4674 120.726 49.1163 120.374 49.5682 120.584C50.0201 120.794 50.2088 121.371 50.1052 121.859C50.0016 122.348 49.6657 122.753 49.3004 123.093C48.6389 123.715 47.4141 124.111 46.9458 123.334C47.0016 122.553 47.4284 121.809 48.0764 121.37" fill="white"/>
<path d="M42.4023 114.324C42.265 115.207 41.0168 115.968 41.5311 116.699C41.9462 117.292 42.9933 116.67 42.9705 115.943C42.9477 115.216 42.337 114.669 41.7742 114.21" fill="white"/>
<path d="M45.8367 106.275C45.8139 105.465 47.0838 105.102 47.6113 105.715C48.1389 106.329 47.8231 107.383 47.1182 107.783C46.4133 108.182 45.4977 108.02 44.816 107.585C44.8684 106.943 45.1075 106.115 45.753 106.105" fill="white"/>
<path d="M38.1591 98.4034L37.7385 99.2091C38.0636 99.3904 38.3849 99.5727 38.71 99.7541C38.8946 99.4399 39.0805 99.1234 39.2674 98.8107C38.9134 98.3927 38.1897 98.3669 37.8064 98.7607" fill="white"/>
<path d="M63.7834 121.946C63.1254 121.916 62.494 122.469 62.4357 123.127C62.9955 123.862 64.4184 123.459 64.5136 122.539C64.2711 122.38 64.0249 122.222 63.7825 122.063" fill="white"/>
<path d="M49.5188 131.34C49.9752 130.351 51.0962 129.71 52.1793 129.819C52.4409 129.846 52.706 129.916 52.9032 130.088C53.2765 130.411 53.2935 130.989 53.1708 131.466C52.9449 132.342 52.2636 133.147 51.3731 133.306C50.4827 133.464 49.4697 132.787 49.4577 131.881" fill="white"/>
<path d="M58.6101 133.972C58.0367 134.199 58.1688 135.244 58.7807 135.32C59.3887 134.868 58.9293 133.678 58.1774 133.751" fill="white"/>
<path d="M35.069 123.309C34.8198 122.219 36.0716 121.071 37.1073 121.494C38.1431 121.916 38.1397 123.731 37.0759 124.079C36.3626 124.311 35.611 123.909 34.9901 123.49" fill="white"/>
<path d="M34.1335 130.223C34.111 129.573 35.1682 129.253 35.5079 129.806C35.5556 130.407 35.1336 131.011 34.5578 131.176C33.982 131.34 33.3027 131.05 33.0286 130.516" fill="white"/>
<path d="M28.3442 110.771L27.8095 111.769C28.1891 111.988 28.5711 112.209 28.9522 112.426C29.7146 111.872 29.3069 110.4 28.369 110.32" fill="white"/>
<path d="M68.9925 139.794C69.5549 139.587 70.2537 139.882 70.4987 140.428C70.9395 141.148 70.431 142.244 69.5977 142.374C68.7645 142.505 67.9458 141.618 68.1462 140.797C68.2202 140.492 68.4031 140.225 68.5805 139.967" fill="white"/>
<path d="M70.734 149.538C70.0505 149.051 68.9451 149.372 68.6262 150.15C68.3074 150.929 68.8659 151.93 69.6941 152.067C70.7389 152.237 71.6094 151.203 71.8922 150.184C71.5571 150.086 71.3342 149.706 71.4114 149.368" fill="white"/>
<path d="M79.5235 165.078C79.0791 165.44 78.7211 165.906 78.487 166.427C78.4043 166.609 78.3363 166.815 78.4041 167.001C78.5708 167.473 79.2807 167.319 79.699 167.041C80.2423 166.679 80.7928 166.155 80.7594 165.502C80.726 164.848 79.6902 164.426 79.4161 165.016" fill="white"/>
<path d="M51.936 150.511C52.2866 150.29 52.7854 150.562 52.9176 150.951C53.0498 151.339 52.9084 151.777 52.6919 152.13C52.5371 152.382 52.3375 152.617 52.0772 152.754C51.5364 153.034 50.7886 152.774 50.5378 152.222C50.287 151.669 50.5872 150.934 51.154 150.713" fill="white"/>
<path d="M66.4066 158.053L65.5117 159.124C65.8388 159.313 66.1645 159.504 66.4903 159.695C66.8811 159.299 66.7556 158.535 66.2642 158.283" fill="white"/>
<path d="M54.0558 144.75C54.514 144.16 55.6189 144.585 55.7199 145.325C55.821 146.065 55.1387 146.745 54.3982 146.853C53.8749 146.927 53.2891 146.745 53.007 146.302C52.7249 145.858 52.8737 145.154 53.3659 144.963" fill="white"/>
<path d="M27.1285 97.6629C27.419 96.7407 28.0499 95.6039 28.9937 95.811C29.8667 96.0028 30.0342 97.2786 29.5336 98.0189C29.2418 98.4527 28.7578 98.7948 28.2358 98.7834C27.7139 98.7721 27.1989 98.3186 27.2428 97.7958" fill="white"/>
<path d="M23.4046 92.3069C22.855 92.6302 22.83 93.5558 23.3612 93.904C23.8925 94.2521 24.7338 93.8647 24.8128 93.2315C24.8919 92.5983 24.1671 92.0174 23.5661 92.2312" fill="white"/>
<path d="M42.6119 97.7491C42.1784 98.2573 41.8883 98.8866 41.7842 99.5467C42.3611 99.3029 42.7534 98.6786 42.7281 98.0552" fill="white"/>
<path d="M50.815 94.6743L51.4982 95.1452C51.451 95.784 51.089 96.4386 50.4865 96.6549C49.8841 96.8711 49.088 96.4689 49.0501 95.8287C49.0122 95.1886 49.9896 94.7363 50.3661 95.2532" fill="white"/>
<path d="M50.2429 81.6921L49.7146 82.6842C49.9529 83.1372 50.7139 83.1591 50.9787 82.7225C51.2436 82.2858 50.8675 81.6193 50.3571 81.621" fill="white"/>
<path d="M40.6871 88.0142C40.7565 87.2544 41.7799 86.7776 42.4044 87.2179C43.0289 87.6581 42.9276 88.782 42.2361 89.103C41.5446 89.4239 40.6201 88.7754 40.6895 88.0156" fill="white"/>
<path d="M34.3247 94.1596C33.9503 94.4661 33.5515 94.8095 33.45 95.2831C33.3485 95.7567 33.7366 96.3472 34.2092 96.2345C34.3996 96.1914 34.5491 96.0483 34.6883 95.9119C35.0151 95.5939 35.3658 95.2292 35.3773 94.7737C35.3888 94.3182 34.821 93.8789 34.4768 94.1773" fill="white"/>
<path d="M143.312 103.71C143.796 103.4 144.553 103.792 144.578 104.368C144.602 104.943 143.885 105.402 143.374 105.135C142.862 104.869 142.825 104.018 143.313 103.707" fill="white"/>
<path d="M164.935 90.3104C164.113 91.0723 164.703 92.7356 165.821 92.8072C166.162 92.8287 166.536 92.704 166.705 92.4062C166.922 92.0248 166.7 91.5109 166.335 91.2654C165.971 91.0199 165.511 90.9715 165.073 90.9417" fill="white"/>
<path d="M155.458 84.8228C154.722 85.109 154.109 85.6918 153.786 86.4105C154.095 87.0347 154.85 87.3591 155.542 87.2842C156.235 87.2093 156.854 86.7887 157.305 86.2556C157.584 85.9261 157.818 85.4938 157.706 85.0755C157.478 84.2237 156.182 84.3294 155.497 84.8808" fill="white"/>
<path d="M148.929 80.9771C149.019 80.5349 149.131 80.0545 149.483 79.7702C149.835 79.4858 150.499 79.5823 150.578 80.0295C150.617 80.2433 150.51 80.4557 150.406 80.6473C150.207 81.0137 149.988 81.3937 149.636 81.6175C149.283 81.8413 148.76 81.8546 148.494 81.5322C148.351 81.3382 148.411 81.0253 148.615 80.8978" fill="white"/>
<path d="M128.697 66.4186L130.116 64.0666C130.463 63.9673 130.809 64.3168 130.846 64.6763C130.884 65.0358 130.716 65.3818 130.554 65.706C130.337 66.1319 130.098 66.5837 129.68 66.8171C129.262 67.0506 128.617 66.933 128.477 66.4759" fill="white"/>
<path d="M110.343 99.163L110.831 98.4886C111.643 98.4443 112.156 99.5751 111.712 100.256C111.268 100.936 110.238 101.049 109.534 100.643C109.288 100.501 109.061 100.287 109.012 100.007C108.964 99.7272 109.169 99.3995 109.45 99.4089" fill="white"/>
<path d="M79.2298 174.09C78.8455 174.337 78.6668 174.861 78.82 175.291C78.9732 175.72 79.4397 176.015 79.8925 175.964C80.2865 175.761 80.6063 175.417 80.7756 175.008C80.2932 174.608 79.7216 174.313 79.1173 174.153" fill="white"/>
<path d="M86.1258 181.258C86.4527 180.449 86.9834 179.497 87.8542 179.522C88.8433 179.551 89.2344 181.074 88.5161 181.756C87.7979 182.437 86.5506 182.243 85.837 181.56" fill="white"/>
<path d="M91.0541 162.819C91.7853 163.129 91.6841 164.435 90.9125 164.63C90.1409 164.825 89.4327 163.724 89.931 163.104C90.2014 162.862 90.6448 162.844 90.9355 163.062" fill="white"/>
<path d="M101.416 181.166C100.377 181.283 99.7554 182.703 100.377 183.546C100.998 184.389 102.533 184.217 102.955 183.259C102.442 182.654 101.792 182.164 101.069 181.839" fill="white"/>
<path d="M107.947 189.083C108.399 189.507 108.397 190.321 107.944 190.742C107.491 191.162 106.679 191.107 106.29 190.624C106.21 189.995 106.687 189.346 107.31 189.231" fill="white"/>
<path d="M161.452 99.0776C160.916 98.6562 159.974 99.0785 159.921 99.7614C159.867 100.444 160.703 101.01 161.322 100.72C161.941 100.431 162.053 99.4435 161.523 99.0101" fill="white"/>
<path d="M178.011 93.9048C177.454 93.7715 176.953 94.4957 177.191 95.0155C177.429 95.5353 178.17 95.692 178.665 95.4075C179.16 95.123 179.41 94.5149 179.392 93.9439C179.382 93.565 179.242 93.1562 178.913 92.9659C178.583 92.7757 178.063 92.9536 178.029 93.3323" fill="white"/>
<path d="M173.658 85.3751C173.475 85.6201 173.691 85.9581 173.895 86.1841C174.435 86.7763 175.405 87.3781 175.918 86.7597C176.134 86.5018 176.136 86.1236 176.068 85.7945C175.908 85.0074 175.314 84.25 174.517 84.1629C173.721 84.0759 172.902 84.948 173.231 85.6797" fill="white"/>
<path d="M62.4864 103.497C62.4445 102.985 62.9344 102.545 63.443 102.491C63.9516 102.437 64.4508 102.681 64.8543 102.997C64.9841 103.097 65.1118 103.212 65.1819 103.361C65.3522 103.733 65.0698 104.195 64.6876 104.344C64.3055 104.493 63.8708 104.408 63.4822 104.276C62.9084 104.078 62.3667 103.782 61.8955 103.401" fill="white"/>
<path d="M119.853 124.22C120.26 123.404 121.636 123.398 122.083 124.195C122.53 124.992 121.864 126.14 120.952 126.187C120.04 126.234 119.263 125.219 119.509 124.341" fill="white"/>
<path d="M122.402 132.774L123.238 131.475C123.935 131.338 124.636 131.915 124.795 132.606C124.953 133.297 124.661 134.033 124.198 134.572C123.703 135.147 122.795 135.534 122.205 135.062C121.588 134.57 121.805 133.598 122.077 132.857" fill="white"/>
<path d="M110.474 132.86C110.535 132.032 111.839 131.726 112.339 132.388C112.839 133.049 112.356 134.144 111.548 134.331C110.74 134.517 109.88 133.884 109.69 133.076" fill="white"/>
<path d="M132.128 141.085C131.874 140.753 131.318 140.821 131.02 141.111C130.722 141.402 130.605 141.831 130.508 142.237C130.414 142.613 130.402 143.142 130.775 143.252C130.928 143.295 131.092 143.243 131.241 143.189C131.7 143.027 132.194 142.834 132.445 142.415C132.697 141.996 132.489 141.303 132.001 141.289" fill="white"/>
<path d="M130.459 134.194L130.043 134.986C130.549 135.718 131.974 135.209 131.902 134.319C131.496 133.798 130.789 133.527 130.138 133.645" fill="white"/>
<path d="M123.723 38.243L122.853 39.8279C123.287 40.4162 124.338 40.3541 124.7 39.7155C125.063 39.077 124.574 38.1417 123.847 38.0724" fill="white"/>
<path d="M104.588 29.0532C105.705 28.6785 106.884 30.0121 106.565 31.1478C106.247 32.2834 104.841 32.877 103.712 32.544C103.114 32.3673 102.534 31.905 102.476 31.2823C102.438 30.8584 102.643 30.454 102.841 30.0777C103.249 29.3035 103.966 28.398 104.791 28.6895" fill="white"/>
<path d="M111.335 41.7508C112.263 41.6491 113.045 42.8368 112.584 43.6512C112.124 44.4656 110.704 44.4044 110.313 43.5541C110.138 42.682 110.826 41.734 111.711 41.6298" fill="white"/>
<path d="M93.0185 25.7389C93.6904 25.4353 94.5665 25.699 94.9576 26.3231C95.3486 26.9472 95.2036 27.8546 94.6365 28.3239C94.4102 28.5119 94.1311 28.6313 93.8422 28.6684C93.1776 28.7499 92.4739 28.3309 92.2653 27.6942C92.0566 27.0575 92.4039 26.2796 93.0286 26.0412" fill="white"/>
<path d="M104.84 37.8094C105.615 37.355 106.706 37.5548 107.268 38.2521C107.204 38.7095 107.123 39.204 106.787 39.5203C106.393 39.8948 105.702 39.8722 105.307 39.4975C104.912 39.1229 104.843 38.4648 105.12 37.9967" fill="white"/>
<path d="M111.754 50.1795C111.48 50.5377 111.836 51.0399 112.21 51.2909C112.491 51.4782 112.842 51.6363 113.158 51.5192C113.627 51.3469 113.703 50.6579 113.419 50.2454C113.135 49.8329 112.643 49.6317 112.176 49.4543C111.99 49.7585 111.805 50.0627 111.62 50.3668" fill="white"/>
<path d="M123.391 42.0443C122.694 42.2376 122.4 43.2375 122.853 43.8023C123.307 44.3671 124.299 44.3311 124.744 43.7593C125.189 43.1875 125.02 42.2552 124.427 41.8428C124.05 41.5805 123.575 41.5163 123.116 41.4779" fill="white"/>
<path d="M90.475 49.7366L89.8175 50.9472C90.1327 51.1292 90.4478 51.3112 90.763 51.4931C91.3908 51.062 90.9271 49.8415 90.1713 49.9373" fill="white"/>
<path d="M86.4464 31.5306C86.0106 32.4454 85.468 33.3081 84.8357 34.0999C85.3002 34.6739 86.3311 34.6254 86.7401 34.0107C87.1492 33.3959 86.7951 32.4266 86.0859 32.2212" fill="white"/>
<path d="M84.2039 20.7965C83.75 21.5 84.7196 22.506 85.4827 22.1658C86.2458 21.8256 86.2827 20.5817 85.5989 20.1008C84.915 19.62 83.8626 19.9429 83.4421 20.6657" fill="white"/>
<path d="M167.512 104.441L167.869 103.939C168.589 103.8 169.372 104.367 169.438 105.097C169.504 105.826 168.797 106.533 168.071 106.439C167.345 106.346 166.844 105.444 167.175 104.788" fill="white"/>
<path d="M134.853 139.156L135.453 138.186C135.697 138.327 135.941 138.468 136.182 138.607C136.093 138.909 135.996 139.226 135.767 139.441C135.538 139.656 135.135 139.72 134.921 139.489" fill="white"/>
<path d="M89.3939 175.857C88.8842 176.42 89.477 177.489 90.234 177.413C90.991 177.337 91.4052 176.288 90.9595 175.671C90.5137 175.053 89.4769 175.057 88.9706 175.625" fill="white"/>
<path d="M139.291 181.025C139.785 180.704 140.362 180.471 140.947 180.528C141.532 180.585 142.107 180.994 142.213 181.571C142.363 182.387 141.575 183.086 140.784 183.34C140.097 183.561 139.282 183.566 138.719 183.113C138.156 182.661 138.04 181.664 138.627 181.244" fill="white"/>
<path d="M139.473 177.015C139.239 176.715 139.731 176.276 140.068 176.448C140.405 176.62 140.465 177.101 140.321 177.454C140.079 178.044 139.361 178.395 138.746 178.218C138.132 178.042 137.711 177.365 137.819 176.736" fill="white"/>
<path d="M131.883 185.655C131.958 184.946 133.091 184.756 133.509 185.332C133.928 185.908 133.6 186.806 132.97 187.143C132.339 187.48 131.547 187.351 130.924 187.004C131.074 186.715 131.224 186.428 131.375 186.139" fill="white"/>
<path d="M13.0888 104.848C13.8739 104.409 14.8411 104.31 15.697 104.582C15.8958 104.645 16.1128 104.755 16.1648 104.957C16.1987 105.091 16.1481 105.234 16.0982 105.364C15.7729 106.209 15.3372 107.162 14.4641 107.401C13.7756 107.59 12.9785 107.184 12.7273 106.516C12.4761 105.848 12.8068 105.016 13.4459 104.703" fill="white"/>
<path d="M14.7754 95.1327L13.7701 96.9456C14.1512 97.1624 14.5322 97.3792 14.9146 97.5936C15.3353 97.1131 15.7761 96.5868 15.8219 95.9504C15.8678 95.314 15.29 94.6108 14.681 94.7945" fill="white"/>
<path d="M21.0307 83.5428C21.3476 84.2898 22.2873 84.7686 23.0268 84.4307C23.7663 84.0928 23.9398 82.8769 23.2461 82.4572C22.8242 82.2009 22.2751 82.2918 21.8277 82.4988C21.3714 82.7101 20.9665 83.0309 20.657 83.4291" fill="white"/>
<path d="M142.795 46.9025C142.461 47.2003 142.114 47.5195 141.978 47.9441C141.841 48.3686 142.008 48.9274 142.438 49.0544C142.669 49.1238 142.922 49.0536 143.123 48.921C143.577 48.6192 143.772 47.9793 143.563 47.4761C143.353 46.9728 142.764 46.6583 142.23 46.7674" fill="white"/>
<path d="M138.05 36.0586C138.282 35.1218 139.049 34.0314 139.958 34.3527C140.816 34.6536 140.739 36.0496 139.984 36.5572C139.23 37.0648 138.21 36.8964 137.362 36.5665" fill="white"/>
<path d="M113.385 33.3259C114.327 33.2931 115.219 34.2029 115.077 35.1377C114.935 36.0724 113.689 36.6595 112.924 36.1095C112.159 35.5596 112.42 34.0979 113.345 33.9181" fill="white"/>
<path d="M78.9643 2.67526C79.651 1.94357 80.6199 1.14217 81.5426 1.53467C82.4629 1.92579 82.5071 3.3822 81.752 4.03935C80.997 4.6965 79.8147 4.63219 78.9342 4.15567C78.2331 3.77639 77.6284 2.84408 78.1305 2.22254" fill="white"/>
<path d="M73.223 13.1819C72.7477 13.4428 72.4865 14.0441 72.619 14.57C72.7516 15.0959 73.2671 15.4987 73.8093 15.5026C74.3449 15.2477 74.6641 14.6066 74.5472 14.026C74.4303 13.4455 73.8825 12.9826 73.2894 12.9621" fill="white"/>
<path d="M69.0311 5.30579C69.5936 4.72864 70.7477 5.15595 70.8738 5.95216C70.9999 6.74838 70.1636 7.50206 69.3679 7.38044C68.5721 7.25883 68.0064 6.39684 68.1116 5.5971" fill="white"/>
</g>
<defs>
<clipPath id="clip0_6_568">
<rect width="200" height="200" fill="white" transform="translate(0.0355835 0.557312)"/>
</clipPath>
</defs>
</svg>
