<svg width="273" height="201" viewBox="0 0 273 201" fill="none" xmlns="http://www.w3.org/2000/svg">
<g clip-path="url(#clip0_6_683)">
<path opacity="0.8" d="M103.548 70.1877C95.3085 61.4096 86.9574 51.8731 75.5943 47.9721C72.4559 46.8963 68.8907 46.3162 65.9026 47.7636C64.3575 48.5129 62.9536 50.2625 63.633 51.8459C63.8464 52.3415 64.2342 52.7373 64.613 53.1211C70.0029 58.5571 75.3929 63.9932 80.7829 69.4323C83.9664 72.6444 87.1559 75.8595 90.5888 78.8026C95.1221 82.6825 100.052 86.0608 104.973 89.433C111.286 93.7571 117.599 98.0781 123.912 102.402C134.232 109.47 144.57 116.55 155.512 122.596C159.727 124.926 164.052 127.117 167.831 130.111C173.296 134.445 177.375 140.267 182.306 145.205C187.236 150.142 193.603 154.373 200.556 154.11C200.444 153.457 200.336 152.801 200.225 152.149C203.499 147.393 206.511 142.452 209.24 137.36C208.669 136.306 207.04 137.104 206.339 138.074C203.312 142.277 202.564 149.018 197.559 150.293C201.376 145.652 204.587 140.506 207.079 135.031C207.509 134.085 207.527 132.474 206.49 132.511C203.908 136.499 201.328 140.488 198.746 144.48C197.94 145.725 196.506 147.139 195.241 146.377C199.089 141.482 202.675 136.378 205.976 131.096C205.206 130.791 204.437 130.486 203.664 130.181C200.303 134.789 196.897 139.361 193.446 143.899C192.55 143.546 192.304 142.307 192.671 141.413C193.037 140.518 193.825 139.884 194.552 139.246C197.79 136.409 200.363 132.813 202.008 128.824C201.728 127.809 200.195 128.543 199.576 129.392C197.39 132.387 195.202 135.384 193.016 138.379C192.148 139.566 190.076 140.651 189.571 139.264C193.206 135.257 196.44 130.885 199.206 126.228C197.574 125.162 195.596 126.911 194.432 128.48C191.979 131.791 189.526 135.106 187.07 138.418C186.367 137.889 185.663 137.363 184.96 136.835C187.894 133 190.831 129.166 193.765 125.328C194.471 124.403 194.408 122.358 193.353 122.838C190.049 127.35 186.334 131.559 182.266 135.39C181.689 135.614 181.698 134.529 182.086 134.046C185.381 129.927 188.672 125.808 191.967 121.69C191.059 120.478 189.102 120.62 187.891 121.53C186.679 122.439 185.988 123.859 185.2 125.156C183.436 128.057 180.977 130.525 178.094 132.302C180.565 128.794 183.033 125.289 185.504 121.78C186.232 120.747 186.643 118.837 185.402 118.632C181.963 122.485 178.343 126.174 174.562 129.688C174.318 129.915 159.724 119.2 157.908 117.892C151.346 113.163 144.93 108.231 138.684 103.091C126.287 92.8929 114.542 81.8969 103.548 70.1847V70.1877Z" fill="#E5F9F9"/>
<path d="M102.475 83.1992C92.8675 75.1675 84.0595 66.1688 76.2316 56.3785C74.6083 54.3509 73.0301 52.2901 71.4489 50.2293C71.8788 50.0661 72.3086 49.9059 72.7385 49.7428C71.3196 49.2955 67.4568 48.5069 67.4387 51.1328C67.4327 52.3233 70.7304 55.07 71.521 56.0068C74.5211 59.5573 77.5723 63.0655 80.7919 66.4166C84.0115 69.7677 87.3392 72.9103 90.9496 75.7718C94.4998 78.5881 99.0811 80.3618 102.475 83.1992V83.1992Z" fill="white"/>
<path d="M198.857 154.068C186.812 150.094 176.483 141.116 170.834 129.709C178.482 135.424 186.132 141.138 193.78 146.852C195.752 148.323 199.687 151.155 198.854 154.068H198.857Z" fill="#2B69E2"/>
<path d="M179.645 139.666C179.375 139.817 179.194 140.116 179.188 140.427C178.68 140.633 178.187 140.122 177.866 139.678C173.161 133.187 166.968 127.797 159.907 124.044C160.845 123.672 161.927 123.699 162.847 124.11C163.439 124.376 163.95 124.787 164.455 125.195C167.326 127.531 170.125 129.957 172.845 132.468C175.274 134.713 177.123 137.59 179.648 139.666H179.645Z" fill="white"/>
<path d="M70.4418 48.6549C83.2118 63.8783 96.6131 79.4281 114.409 88.176C109.113 79.2317 100.753 72.8347 92.8074 66.4226C88.8393 63.2196 84.6067 60.0257 81.2308 56.173C79.9442 54.7074 78.9011 53.2631 77.3289 52.0453C75.6995 50.7822 71.5481 49.9754 70.4418 48.6549V48.6549Z" fill="#2B69E2"/>
</g>
<defs>
<clipPath id="clip0_6_683">
<rect width="200" height="271.942" fill="white" transform="translate(272.327 0.508057) rotate(90)"/>
</clipPath>
</defs>
</svg>
