<svg width="200" height="121" viewBox="0 0 200 121" fill="none" xmlns="http://www.w3.org/2000/svg">
<path opacity="0.8" d="M72.9272 81.6476C73.2434 78.2049 73.1241 74.7176 72.5721 71.3057C72.4556 70.5797 72.3058 69.8287 71.8731 69.2367C71.4403 68.6448 70.6387 68.2595 69.9591 68.5303C69.6956 68.6364 69.4737 68.8263 69.2573 69.0134C66.2892 71.5877 63.2823 74.1145 60.2338 76.5911C57.4405 78.8611 53.618 81.0221 51.3767 83.7751C54.0507 84.5793 69.2379 82.2842 72.9272 81.6476V81.6476Z" fill="#B1D7E0"/>
<path opacity="0.6" d="M65.6789 73.8326C61.3433 78.0682 56.3059 81.5723 50.8386 84.1605C47.2297 79.4587 43.6181 74.754 40.0092 70.0521C49.5487 64.5991 56.4779 55.6114 63.396 47.0453C70.3141 38.4791 77.8481 29.8209 87.9367 25.4847C89.4125 24.8509 90.952 24.3121 92.5497 24.1892C94.2557 24.0608 95.9616 24.4098 97.6232 24.8342C105.204 26.7663 112.389 30.2676 118.599 35.0532C121.14 37.0133 123.559 39.2302 125.168 42.0167C126.347 44.0577 127.049 46.3361 127.945 48.5167C131.714 57.7166 138.38 62.0555 147.423 66.0762C147.753 66.2241 159.132 86.5589 160 96.6356C145.72 92.2325 131.296 88.3068 116.758 84.8697C113.099 84.0042 109.226 83.1777 105.643 84.3113C103.751 84.9116 102.056 86.0284 100.186 86.6957C98.0338 87.4608 95.7203 87.606 93.4429 87.7456C87.1878 88.1225 80.9354 88.5022 74.6803 88.8792C74.1033 88.9155 73.4875 88.9406 72.9882 88.6446C72.1338 88.1393 72.0118 86.9638 71.9868 85.967C71.8842 81.6839 72.07 77.2808 71.6733 73.0145C71.2434 68.3936 67.8981 71.6631 65.6817 73.827L65.6789 73.8326Z" fill="#C1F0F7"/>
<path opacity="0.8" d="M81.2766 69.4489C82.658 69.3512 84.045 69.2563 85.4042 68.9854C86.8688 68.6951 88.289 68.2064 89.7509 67.8993C91.6926 67.4917 93.7009 67.4079 95.6704 67.6564C98.3999 67.9998 101.071 68.9743 103.817 68.8514C105.681 68.7705 107.484 68.1869 109.26 67.6061C111.651 66.8272 114.042 66.0482 116.43 65.2692C121.493 63.619 126.863 61.9522 132.045 63.1667C133.271 63.4543 134.461 63.8983 135.703 64.0965C137.168 64.3282 138.663 64.2138 140.144 64.2836C142.893 64.4148 145.612 65.2022 148.008 66.5647C144.732 66.4083 142.508 69.7477 139.315 70.5099C137.579 70.9232 135.795 71.0711 134.02 71.2722C129.165 71.8222 124.355 72.7911 119.662 74.1592C118.613 74.4663 117.562 74.7958 116.594 75.3067C114.597 76.3621 113.077 78.1184 111.396 79.6345C107.545 83.105 101.906 83.683 96.9464 85.1489C91.9867 86.6147 86.8466 87.3323 81.7288 88.047C79.2433 88.3933 76.7551 88.7395 74.2475 88.8372C73.8342 88.854 73.3765 88.8484 73.0686 88.5692C72.819 88.343 72.7302 87.994 72.6581 87.6645C71.9646 84.476 71.6844 81.198 71.8204 77.9369C71.8814 76.4962 72.0229 75.0164 71.812 73.5812C71.69 72.7659 72.0811 71.409 70.6886 70.5434C72.5416 70.3647 75.0048 69.8929 75.8814 69.8314L81.2683 69.4545L81.2766 69.4489Z" fill="#E0F9FC"/>
<path opacity="0.8" d="M106.724 28.9469C112.902 32.3951 118.91 36.1449 124.727 40.1822C118.971 41.7151 113.104 42.8347 107.19 43.5272C104.025 43.8985 100.83 44.1498 97.7453 44.9595C87.7592 47.5785 81.7842 62.0248 75.0797 69.9208C75.0797 69.9208 69.9591 68.5303 67.138 71.9283C62.9827 76.9317 58.5944 79.6764 50.4391 83.8422C47.2602 79.1375 43.876 74.5724 40.3033 70.1637C45.4017 66.0426 50.5001 61.9215 55.5986 57.8003C58.1145 55.7677 60.636 53.7295 62.8995 51.4148C70.6109 43.5383 75.3183 32.5487 84.6691 26.7467C91.8868 22.2682 99.8756 25.1273 106.727 28.9497L106.724 28.9469Z" fill="#E0F9FC"/>
</svg>
